<svg width="255" height="100" viewBox="0 0 255 100" fill="none" xmlns="http://www.w3.org/2000/svg">
<path fill-rule="evenodd" clip-rule="evenodd" d="M39.1691 12.0845C42.3071 10.3318 45.9233 9.33302 49.7728 9.33302C53.6223 9.33302 57.2385 10.3318 60.3765 12.0845L62.6721 9.78861C63.2796 9.18114 64.2646 9.18114 64.8721 9.78861C65.4794 10.3961 65.4794 11.3809 64.8721 11.9884L63.0292 13.8313C68.2102 17.8121 71.5495 24.0709 71.5495 31.1096H27.9961C27.9961 24.0709 31.3354 17.8121 36.5164 13.8313L34.6735 11.9884C34.0662 11.3809 34.0662 10.3961 34.6735 9.78861C35.281 9.18114 36.266 9.18114 36.8735 9.78861L39.1691 12.0845ZM43.5509 21.7768C43.5509 23.4949 42.1581 24.8877 40.4399 24.8877C38.7217 24.8877 37.329 23.4949 37.329 21.7768C37.329 20.0587 38.7217 18.6658 40.4399 18.6658C42.1581 18.6658 43.5509 20.0587 43.5509 21.7768ZM59.1057 24.8877C60.8239 24.8877 62.2166 23.4949 62.2166 21.7768C62.2166 20.0587 60.8239 18.6658 59.1057 18.6658C57.3875 18.6658 55.9947 20.0587 55.9947 21.7768C55.9947 23.4949 57.3875 24.8877 59.1057 24.8877Z" fill="#87C527"/>
<path d="M15.5547 38.8871C15.5547 36.31 17.6439 34.2207 20.2211 34.2207C22.7983 34.2207 24.8876 36.31 24.8876 38.8871V57.5527C24.8876 60.1298 22.7983 62.2191 20.2211 62.2191C17.6439 62.2191 15.5547 60.1298 15.5547 57.5527V38.8871Z" fill="#87C527"/>
<path d="M37.329 74.6629V85.5512C37.329 88.1283 39.4183 90.2176 41.9954 90.2176C44.5725 90.2176 46.6618 88.1283 46.6618 85.5512V74.6629H52.8838V85.5512C52.8838 88.1283 54.9731 90.2176 57.5502 90.2176C60.1273 90.2176 62.2166 88.1283 62.2166 85.5512V74.6629H65.3276C68.7639 74.6629 71.5495 71.8774 71.5495 68.441V34.2207H27.9961V68.441C27.9961 71.8774 30.7817 74.6629 34.218 74.6629H37.329Z" fill="#87C527"/>
<path d="M74.6602 38.8871C74.6602 36.31 76.7495 34.2207 79.3266 34.2207C81.9037 34.2207 83.993 36.31 83.993 38.8871V57.5527C83.993 60.1298 81.9037 62.2191 79.3266 62.2191C76.7495 62.2191 74.6602 60.1298 74.6602 57.5527V38.8871Z" fill="#87C527"/>
<path d="M104.92 23.2428L99.2966 38.7236H96.9984L103.473 21.7379H104.955L104.92 23.2428ZM109.633 38.7236L103.998 23.2428L103.963 21.7379H105.445L111.943 38.7236H109.633ZM109.341 32.4356V34.2789H99.7982V32.4356H109.341ZM116.049 28.7958V38.7236H113.891V26.101H115.932L116.049 28.7958ZM115.536 31.934L114.637 31.899C114.645 31.0357 114.774 30.2385 115.022 29.5075C115.271 28.7686 115.621 28.127 116.072 27.5826C116.523 27.0381 117.06 26.6182 117.682 26.3226C118.312 26.0193 119.008 25.8676 119.771 25.8676C120.393 25.8676 120.953 25.9532 121.45 26.1243C121.948 26.2876 122.372 26.5521 122.722 26.9176C123.08 27.2831 123.352 27.7575 123.539 28.3408C123.725 28.9164 123.819 29.6202 123.819 30.4524V38.7236H121.649V30.4291C121.649 29.768 121.552 29.2391 121.357 28.8425C121.163 28.4381 120.879 28.1464 120.505 27.9675C120.132 27.7809 119.673 27.6875 119.129 27.6875C118.592 27.6875 118.102 27.8003 117.659 28.0259C117.223 28.2514 116.846 28.5625 116.527 28.9591C116.216 29.3558 115.971 29.8108 115.792 30.3241C115.621 30.8296 115.536 31.3662 115.536 31.934ZM135.053 36.2738V20.8046H137.223V38.7236H135.24L135.053 36.2738ZM126.56 32.5523V32.3073C126.56 31.3429 126.677 30.468 126.91 29.6824C127.151 28.8892 127.49 28.2086 127.925 27.6409C128.368 27.0731 128.893 26.6376 129.5 26.3343C130.114 26.0232 130.799 25.8676 131.553 25.8676C132.347 25.8676 133.039 26.0076 133.63 26.2876C134.229 26.5598 134.734 26.9604 135.146 27.4892C135.566 28.0103 135.897 28.6403 136.138 29.3791C136.379 30.118 136.546 30.954 136.64 31.8873V32.9606C136.554 33.8861 136.387 34.7183 136.138 35.4571C135.897 36.196 135.566 36.826 135.146 37.347C134.734 37.8681 134.229 38.2687 133.63 38.5486C133.031 38.8208 132.331 38.957 131.53 38.957C130.791 38.957 130.114 38.7975 129.5 38.4786C128.893 38.1598 128.368 37.7126 127.925 37.137C127.49 36.5615 127.151 35.8849 126.91 35.1072C126.677 34.3216 126.56 33.47 126.56 32.5523ZM128.73 32.3073V32.5523C128.73 33.1823 128.792 33.7733 128.917 34.3255C129.049 34.8777 129.251 35.3638 129.523 35.7838C129.796 36.2038 130.142 36.5343 130.562 36.7754C130.982 37.0087 131.483 37.1254 132.067 37.1254C132.782 37.1254 133.369 36.9737 133.828 36.6704C134.295 36.3671 134.668 35.9666 134.948 35.4688C135.228 34.9711 135.446 34.4305 135.601 33.8472V31.0357C135.508 30.6079 135.372 30.1957 135.193 29.7991C135.022 29.3947 134.796 29.0369 134.516 28.7258C134.244 28.407 133.906 28.1542 133.501 27.9675C133.105 27.7809 132.634 27.6875 132.09 27.6875C131.499 27.6875 130.989 27.812 130.562 28.0609C130.142 28.302 129.796 28.6364 129.523 29.0641C129.251 29.4841 129.049 29.9741 128.917 30.5341C128.792 31.0863 128.73 31.6773 128.73 32.3073ZM142.741 28.0842V38.7236H140.583V26.101H142.683L142.741 28.0842ZM146.684 26.031L146.672 28.0375C146.494 27.9986 146.322 27.9753 146.159 27.9675C146.004 27.952 145.825 27.9442 145.622 27.9442C145.125 27.9442 144.685 28.022 144.304 28.1775C143.923 28.3331 143.6 28.5508 143.336 28.8308C143.072 29.1108 142.862 29.4452 142.706 29.8341C142.558 30.2152 142.461 30.6352 142.414 31.094L141.808 31.444C141.808 30.6818 141.882 29.9663 142.029 29.2975C142.185 28.6286 142.422 28.0375 142.741 27.5242C143.06 27.0031 143.464 26.5987 143.954 26.311C144.452 26.0154 145.043 25.8676 145.727 25.8676C145.883 25.8676 146.062 25.8871 146.264 25.926C146.466 25.9571 146.606 25.9921 146.684 26.031ZM147.874 32.5523V32.284C147.874 31.374 148.006 30.5302 148.271 29.7524C148.535 28.9669 148.916 28.2864 149.414 27.7109C149.912 27.1276 150.514 26.6765 151.222 26.3576C151.93 26.031 152.723 25.8676 153.602 25.8676C154.489 25.8676 155.286 26.031 155.994 26.3576C156.709 26.6765 157.316 27.1276 157.814 27.7109C158.319 28.2864 158.704 28.9669 158.968 29.7524C159.233 30.5302 159.365 31.374 159.365 32.284V32.5523C159.365 33.4622 159.233 34.3061 158.968 35.0838C158.704 35.8616 158.319 36.5421 157.814 37.1254C157.316 37.7009 156.713 38.152 156.005 38.4786C155.305 38.7975 154.512 38.957 153.625 38.957C152.739 38.957 151.942 38.7975 151.234 38.4786C150.526 38.152 149.919 37.7009 149.414 37.1254C148.916 36.5421 148.535 35.8616 148.271 35.0838C148.006 34.3061 147.874 33.4622 147.874 32.5523ZM150.032 32.284V32.5523C150.032 33.1823 150.106 33.7772 150.254 34.3372C150.402 34.8894 150.623 35.3794 150.919 35.8071C151.222 36.2349 151.599 36.5732 152.05 36.8221C152.502 37.0632 153.027 37.1837 153.625 37.1837C154.216 37.1837 154.734 37.0632 155.177 36.8221C155.628 36.5732 156.001 36.2349 156.297 35.8071C156.592 35.3794 156.814 34.8894 156.962 34.3372C157.117 33.7772 157.195 33.1823 157.195 32.5523V32.284C157.195 31.6618 157.117 31.0746 156.962 30.5224C156.814 29.9624 156.589 29.4686 156.285 29.0408C155.99 28.6053 155.616 28.2631 155.165 28.0142C154.722 27.7653 154.201 27.6409 153.602 27.6409C153.011 27.6409 152.49 27.7653 152.039 28.0142C151.596 28.2631 151.222 28.6053 150.919 29.0408C150.623 29.4686 150.402 29.9624 150.254 30.5224C150.106 31.0746 150.032 31.6618 150.032 32.284ZM164.417 26.101V38.7236H162.247V26.101H164.417ZM162.083 22.7528C162.083 22.4028 162.188 22.1073 162.398 21.8662C162.616 21.6251 162.935 21.5045 163.355 21.5045C163.767 21.5045 164.082 21.6251 164.3 21.8662C164.525 22.1073 164.638 22.4028 164.638 22.7528C164.638 23.0872 164.525 23.375 164.3 23.6161C164.082 23.8494 163.767 23.9661 163.355 23.9661C162.935 23.9661 162.616 23.8494 162.398 23.6161C162.188 23.375 162.083 23.0872 162.083 22.7528ZM175.838 36.2738V20.8046H178.007V38.7236H176.024L175.838 36.2738ZM167.345 32.5523V32.3073C167.345 31.3429 167.461 30.468 167.695 29.6824C167.936 28.8892 168.274 28.2086 168.71 27.6409C169.153 27.0731 169.678 26.6376 170.285 26.3343C170.899 26.0232 171.583 25.8676 172.338 25.8676C173.131 25.8676 173.823 26.0076 174.414 26.2876C175.013 26.5598 175.519 26.9604 175.931 27.4892C176.351 28.0103 176.681 28.6403 176.923 29.3791C177.164 30.118 177.331 30.954 177.424 31.8873V32.9606C177.339 33.8861 177.171 34.7183 176.923 35.4571C176.681 36.196 176.351 36.826 175.931 37.347C175.519 37.8681 175.013 38.2687 174.414 38.5486C173.815 38.8208 173.115 38.957 172.314 38.957C171.576 38.957 170.899 38.7975 170.285 38.4786C169.678 38.1598 169.153 37.7126 168.71 37.137C168.274 36.5615 167.936 35.8849 167.695 35.1072C167.461 34.3216 167.345 33.47 167.345 32.5523ZM169.515 32.3073V32.5523C169.515 33.1823 169.577 33.7733 169.701 34.3255C169.833 34.8777 170.036 35.3638 170.308 35.7838C170.58 36.2038 170.926 36.5343 171.346 36.7754C171.766 37.0087 172.268 37.1254 172.851 37.1254C173.567 37.1254 174.154 36.9737 174.613 36.6704C175.079 36.3671 175.453 35.9666 175.733 35.4688C176.013 34.9711 176.23 34.4305 176.386 33.8472V31.0357C176.293 30.6079 176.156 30.1957 175.978 29.7991C175.806 29.3947 175.581 29.0369 175.301 28.7258C175.029 28.407 174.69 28.1542 174.286 27.9675C173.889 27.7809 173.419 27.6875 172.874 27.6875C172.283 27.6875 171.774 27.812 171.346 28.0609C170.926 28.302 170.58 28.6364 170.308 29.0641C170.036 29.4841 169.833 29.9741 169.701 30.5341C169.577 31.0863 169.515 31.6773 169.515 32.3073ZM193.908 23.2428L188.285 38.7236H185.987L192.462 21.7379H193.943L193.908 23.2428ZM198.621 38.7236L192.987 23.2428L192.952 21.7379H194.433L200.931 38.7236H198.621ZM198.33 32.4356V34.2789H188.787V32.4356H198.33ZM205.038 28.5275V43.5767H202.868V26.101H204.851L205.038 28.5275ZM213.542 32.3073V32.5523C213.542 33.47 213.433 34.3216 213.216 35.1072C212.998 35.8849 212.679 36.5615 212.259 37.137C211.847 37.7126 211.337 38.1598 210.731 38.4786C210.124 38.7975 209.428 38.957 208.643 38.957C207.841 38.957 207.134 38.8247 206.519 38.5603C205.905 38.2959 205.384 37.9109 204.956 37.4054C204.528 36.8998 204.186 36.2932 203.929 35.5855C203.681 34.8777 203.509 34.0805 203.416 33.1939V31.8873C203.509 30.954 203.684 30.118 203.941 29.3791C204.198 28.6403 204.536 28.0103 204.956 27.4892C205.384 26.9604 205.901 26.5598 206.508 26.2876C207.114 26.0076 207.814 25.8676 208.608 25.8676C209.401 25.8676 210.105 26.0232 210.719 26.3343C211.333 26.6376 211.851 27.0731 212.271 27.6409C212.691 28.2086 213.006 28.8892 213.216 29.6824C213.433 30.468 213.542 31.3429 213.542 32.3073ZM211.372 32.5523V32.3073C211.372 31.6773 211.306 31.0863 211.174 30.5341C211.042 29.9741 210.836 29.4841 210.556 29.0641C210.284 28.6364 209.934 28.302 209.506 28.0609C209.078 27.812 208.569 27.6875 207.978 27.6875C207.433 27.6875 206.959 27.7809 206.554 27.9675C206.158 28.1542 205.819 28.407 205.539 28.7258C205.259 29.0369 205.03 29.3947 204.851 29.7991C204.68 30.1957 204.552 30.6079 204.466 31.0357V34.0572C204.622 34.6016 204.839 35.1149 205.119 35.5971C205.399 36.0716 205.773 36.4565 206.239 36.7521C206.706 37.0398 207.293 37.1837 208.001 37.1837C208.584 37.1837 209.086 37.0632 209.506 36.8221C209.934 36.5732 210.284 36.2349 210.556 35.8071C210.836 35.3794 211.042 34.8894 211.174 34.3372C211.306 33.7772 211.372 33.1823 211.372 32.5523ZM218.454 28.5275V43.5767H216.284V26.101H218.267L218.454 28.5275ZM226.958 32.3073V32.5523C226.958 33.47 226.849 34.3216 226.632 35.1072C226.414 35.8849 226.095 36.5615 225.675 37.137C225.263 37.7126 224.753 38.1598 224.147 38.4786C223.54 38.7975 222.844 38.957 222.058 38.957C221.257 38.957 220.55 38.8247 219.935 38.5603C219.321 38.2959 218.8 37.9109 218.372 37.4054C217.944 36.8998 217.602 36.2932 217.345 35.5855C217.097 34.8777 216.925 34.0805 216.832 33.1939V31.8873C216.925 30.954 217.1 30.118 217.357 29.3791C217.614 28.6403 217.952 28.0103 218.372 27.4892C218.8 26.9604 219.317 26.5598 219.924 26.2876C220.53 26.0076 221.23 25.8676 222.023 25.8676C222.817 25.8676 223.521 26.0232 224.135 26.3343C224.749 26.6376 225.267 27.0731 225.687 27.6409C226.107 28.2086 226.422 28.8892 226.632 29.6824C226.849 30.468 226.958 31.3429 226.958 32.3073ZM224.788 32.5523V32.3073C224.788 31.6773 224.722 31.0863 224.59 30.5341C224.458 29.9741 224.252 29.4841 223.972 29.0641C223.7 28.6364 223.35 28.302 222.922 28.0609C222.494 27.812 221.985 27.6875 221.394 27.6875C220.849 27.6875 220.375 27.7809 219.97 27.9675C219.574 28.1542 219.235 28.407 218.955 28.7258C218.675 29.0369 218.446 29.3947 218.267 29.7991C218.096 30.1957 217.968 30.6079 217.882 31.0357V34.0572C218.038 34.6016 218.255 35.1149 218.535 35.5971C218.815 36.0716 219.189 36.4565 219.655 36.7521C220.122 37.0398 220.709 37.1837 221.417 37.1837C222 37.1837 222.502 37.0632 222.922 36.8221C223.35 36.5732 223.7 36.2349 223.972 35.8071C224.252 35.3794 224.458 34.8894 224.59 34.3372C224.722 33.7772 224.788 33.1823 224.788 32.5523Z" fill="black"/>
<path d="M105.265 78.1709H100.521L100.551 74.6688H105.265C106.443 74.6688 107.435 74.4044 108.243 73.8756C109.052 73.3369 109.66 72.5536 110.069 71.526C110.488 70.4983 110.698 69.2561 110.698 67.7994V66.7368C110.698 65.6194 110.578 64.6366 110.339 63.7885C110.109 62.9404 109.765 62.2271 109.306 61.6484C108.847 61.0697 108.283 60.6357 107.615 60.3463C106.946 60.047 106.178 59.8973 105.31 59.8973H100.431V56.3803H105.31C106.767 56.3803 108.099 56.6297 109.306 57.1286C110.523 57.6175 111.576 58.3209 112.464 59.2388C113.352 60.1567 114.035 61.2543 114.514 62.5314C115.003 63.7985 115.248 65.2103 115.248 66.7668V67.7994C115.248 69.3459 115.003 70.7577 114.514 72.0348C114.035 73.3119 113.352 74.4094 112.464 75.3273C111.586 76.2353 110.533 76.9387 109.306 77.4376C108.089 77.9265 106.742 78.1709 105.265 78.1709ZM103.065 56.3803V78.1709H98.5754V56.3803H103.065ZM120.617 70.2389V69.9246C120.617 68.7373 120.787 67.6448 121.126 66.647C121.465 65.6393 121.959 64.7663 122.608 64.028C123.256 63.2896 124.055 62.7159 125.002 62.3069C125.95 61.8878 127.038 61.6783 128.265 61.6783C129.492 61.6783 130.585 61.8878 131.543 62.3069C132.5 62.7159 133.304 63.2896 133.952 64.028C134.611 64.7663 135.11 65.6393 135.449 66.647C135.788 67.6448 135.958 68.7373 135.958 69.9246V70.2389C135.958 71.4162 135.788 72.5087 135.449 73.5165C135.11 74.5142 134.611 75.3872 133.952 76.1355C133.304 76.8738 132.505 77.4475 131.558 77.8566C130.61 78.2657 129.522 78.4702 128.295 78.4702C127.068 78.4702 125.975 78.2657 125.017 77.8566C124.07 77.4475 123.266 76.8738 122.608 76.1355C121.959 75.3872 121.465 74.5142 121.126 73.5165C120.787 72.5087 120.617 71.4162 120.617 70.2389ZM124.928 69.9246V70.2389C124.928 70.9173 124.988 71.5509 125.107 72.1396C125.227 72.7282 125.417 73.2471 125.676 73.696C125.945 74.1351 126.295 74.4793 126.724 74.7287C127.153 74.9781 127.676 75.1029 128.295 75.1029C128.894 75.1029 129.407 74.9781 129.837 74.7287C130.266 74.4793 130.61 74.1351 130.869 73.696C131.129 73.2471 131.318 72.7282 131.438 72.1396C131.568 71.5509 131.632 70.9173 131.632 70.2389V69.9246C131.632 69.2661 131.568 68.6475 131.438 68.0688C131.318 67.4801 131.124 66.9613 130.854 66.5123C130.595 66.0534 130.251 65.6942 129.822 65.4348C129.393 65.1754 128.874 65.0457 128.265 65.0457C127.656 65.0457 127.138 65.1754 126.709 65.4348C126.29 65.6942 125.945 66.0534 125.676 66.5123C125.417 66.9613 125.227 67.4801 125.107 68.0688C124.988 68.6475 124.928 69.2661 124.928 69.9246ZM146.296 73.9804L149.664 61.9776H152.402L151.519 66.6919L148.152 78.1709H145.862L146.296 73.9804ZM144.59 61.9776L147 73.9654L147.224 78.1709H144.53L140.429 61.9776H144.59ZM155.485 73.7709L157.835 61.9776H162.011L157.91 78.1709H155.231L155.485 73.7709ZM152.776 61.9776L156.129 73.8906L156.593 78.1709H154.288L150.921 66.7069L150.068 61.9776H152.776ZM171.466 65.4348V78.1709H167.156V61.9776H171.197L171.466 65.4348ZM170.838 69.5055H169.67C169.67 68.3083 169.825 67.2307 170.134 66.2729C170.443 65.3051 170.877 64.4819 171.436 63.8035C171.995 63.115 172.658 62.5912 173.427 62.232C174.205 61.8629 175.073 61.6783 176.031 61.6783C176.789 61.6783 177.482 61.788 178.111 62.0076C178.74 62.2271 179.278 62.5763 179.727 63.0552C180.186 63.5341 180.536 64.1677 180.775 64.9559C181.024 65.7441 181.149 66.7069 181.149 67.8443V78.1709H176.809V67.8293C176.809 67.111 176.709 66.5522 176.51 66.1531C176.31 65.7541 176.016 65.4747 175.627 65.3151C175.248 65.1454 174.779 65.0606 174.22 65.0606C173.641 65.0606 173.137 65.1754 172.708 65.4048C172.289 65.6343 171.94 65.9536 171.661 66.3627C171.391 66.7618 171.187 67.2307 171.047 67.7695C170.907 68.3083 170.838 68.887 170.838 69.5055ZM192.041 55.183V78.1709H187.716V55.183H192.041ZM197.98 70.2389V69.9246C197.98 68.7373 198.15 67.6448 198.489 66.647C198.828 65.6393 199.322 64.7663 199.97 64.028C200.619 63.2896 201.417 62.7159 202.365 62.3069C203.313 61.8878 204.4 61.6783 205.628 61.6783C206.855 61.6783 207.947 61.8878 208.905 62.3069C209.863 62.7159 210.666 63.2896 211.315 64.028C211.973 64.7663 212.472 65.6393 212.811 66.647C213.151 67.6448 213.32 68.7373 213.32 69.9246V70.2389C213.32 71.4162 213.151 72.5087 212.811 73.5165C212.472 74.5142 211.973 75.3872 211.315 76.1355C210.666 76.8738 209.868 77.4475 208.92 77.8566C207.972 78.2657 206.885 78.4702 205.658 78.4702C204.43 78.4702 203.338 78.2657 202.38 77.8566C201.432 77.4475 200.629 76.8738 199.97 76.1355C199.322 75.3872 198.828 74.5142 198.489 73.5165C198.15 72.5087 197.98 71.4162 197.98 70.2389ZM202.29 69.9246V70.2389C202.29 70.9173 202.35 71.5509 202.47 72.1396C202.59 72.7282 202.779 73.2471 203.039 73.696C203.308 74.1351 203.657 74.4793 204.086 74.7287C204.515 74.9781 205.039 75.1029 205.658 75.1029C206.256 75.1029 206.77 74.9781 207.199 74.7287C207.628 74.4793 207.972 74.1351 208.232 73.696C208.491 73.2471 208.681 72.7282 208.8 72.1396C208.93 71.5509 208.995 70.9173 208.995 70.2389V69.9246C208.995 69.2661 208.93 68.6475 208.8 68.0688C208.681 67.4801 208.486 66.9613 208.217 66.5123C207.957 66.0534 207.613 65.6942 207.184 65.4348C206.755 65.1754 206.236 65.0457 205.628 65.0457C205.019 65.0457 204.5 65.1754 204.071 65.4348C203.652 65.6942 203.308 66.0534 203.039 66.5123C202.779 66.9613 202.59 67.4801 202.47 68.0688C202.35 68.6475 202.29 69.2661 202.29 69.9246ZM227.774 74.5192V67.3055C227.774 66.7867 227.69 66.3427 227.52 65.9736C227.35 65.5944 227.086 65.3001 226.727 65.0906C226.378 64.881 225.924 64.7763 225.365 64.7763C224.886 64.7763 224.472 64.8611 224.123 65.0307C223.774 65.1903 223.504 65.4248 223.315 65.7341C223.125 66.0334 223.03 66.3876 223.03 66.7967H218.72C218.72 66.1083 218.88 65.4547 219.199 64.8361C219.518 64.2175 219.982 63.6738 220.591 63.2048C221.199 62.7259 221.923 62.3518 222.761 62.0824C223.609 61.813 224.557 61.6783 225.604 61.6783C226.862 61.6783 227.979 61.8878 228.957 62.3069C229.935 62.7259 230.703 63.3545 231.262 64.1926C231.83 65.0307 232.115 66.0783 232.115 67.3355V74.2648C232.115 75.1527 232.169 75.8811 232.279 76.4498C232.389 77.0085 232.549 77.4974 232.758 77.9165V78.1709H228.403C228.193 77.7319 228.034 77.1831 227.924 76.5246C227.824 75.8561 227.774 75.1877 227.774 74.5192ZM228.343 68.3083L228.373 70.7477H225.964C225.395 70.7477 224.901 70.8126 224.482 70.9423C224.063 71.072 223.719 71.2566 223.449 71.496C223.18 71.7255 222.98 71.9949 222.851 72.3042C222.731 72.6135 222.671 72.9527 222.671 73.3219C222.671 73.6911 222.756 74.0253 222.925 74.3246C223.095 74.614 223.339 74.8434 223.659 75.0131C223.978 75.1727 224.352 75.2525 224.781 75.2525C225.43 75.2525 225.993 75.1228 226.472 74.8634C226.951 74.604 227.32 74.2847 227.58 73.9056C227.849 73.5264 227.989 73.1672 227.999 72.828L229.136 74.6539C228.977 75.0629 228.757 75.487 228.478 75.926C228.208 76.365 227.864 76.7791 227.445 77.1682C227.026 77.5473 226.522 77.8616 225.934 78.111C225.345 78.3505 224.647 78.4702 223.838 78.4702C222.811 78.4702 221.878 78.2657 221.04 77.8566C220.212 77.4376 219.553 76.8639 219.064 76.1355C218.585 75.3972 218.346 74.5591 218.346 73.6212C218.346 72.7731 218.505 72.0198 218.825 71.3613C219.144 70.7028 219.613 70.1491 220.232 69.7001C220.86 69.2411 221.643 68.8969 222.581 68.6674C223.519 68.428 224.607 68.3083 225.844 68.3083H228.343ZM248.065 74.6389V55.183H252.406V78.1709H248.499L248.065 74.6389ZM237.829 70.2688V69.9545C237.829 68.7173 237.968 67.5949 238.248 66.5872C238.527 65.5695 238.936 64.6965 239.475 63.9681C240.014 63.2398 240.677 62.676 241.465 62.2769C242.254 61.8778 243.152 61.6783 244.159 61.6783C245.107 61.6783 245.935 61.8778 246.644 62.2769C247.362 62.676 247.971 63.2447 248.469 63.9831C248.978 64.7114 249.387 65.5745 249.697 66.5722C250.006 67.56 250.231 68.6425 250.37 69.8198V70.5083C250.231 71.6357 250.006 72.6833 249.697 73.6511C249.387 74.619 248.978 75.467 248.469 76.1954C247.971 76.9137 247.362 77.4725 246.644 77.8716C245.925 78.2707 245.087 78.4702 244.129 78.4702C243.122 78.4702 242.224 78.2657 241.435 77.8566C240.657 77.4475 239.999 76.8738 239.46 76.1355C238.931 75.3972 238.527 74.5292 238.248 73.5314C237.968 72.5337 237.829 71.4461 237.829 70.2688ZM242.139 69.9545V70.2688C242.139 70.9373 242.189 71.5609 242.289 72.1396C242.398 72.7183 242.573 73.2321 242.812 73.6811C243.062 74.1201 243.381 74.4643 243.77 74.7137C244.169 74.9532 244.653 75.0729 245.222 75.0729C245.96 75.0729 246.569 74.9083 247.048 74.579C247.527 74.2398 247.891 73.7759 248.14 73.1872C248.4 72.5985 248.549 71.9201 248.589 71.1518V69.1913C248.559 68.5627 248.469 67.999 248.32 67.5001C248.18 66.9912 247.971 66.5572 247.691 66.198C247.422 65.8389 247.083 65.5595 246.674 65.3599C246.274 65.1604 245.801 65.0606 245.252 65.0606C244.693 65.0606 244.214 65.1903 243.815 65.4497C243.416 65.6992 243.092 66.0434 242.842 66.4824C242.603 66.9214 242.423 67.4402 242.303 68.0389C242.194 68.6275 242.139 69.2661 242.139 69.9545Z" fill="black"/>
</svg>
