<svg version="1.1" viewBox="0.0 0.0 1193.0 737.0" fill="none" stroke="none" stroke-linecap="square" stroke-miterlimit="10" width="1193" height="737" xmlns:xlink="http://www.w3.org/1999/xlink" xmlns="http://www.w3.org/2000/svg"><path fill="#ffffff" d="M0 0L1193.0 0L1193.0 737.0L0 737.0L0 0Z" fill-rule="nonzero"/><path stroke="#cccccc" stroke-width="1.0" stroke-linecap="butt" d="M110.5 621.5L1156.5 621.5" fill-rule="nonzero"/><path stroke="#cccccc" stroke-width="1.0" stroke-linecap="butt" d="M110.5 494.5L1156.5 494.5" fill-rule="nonzero"/><path stroke="#cccccc" stroke-width="1.0" stroke-linecap="butt" d="M110.5 367.5L1156.5 367.5" fill-rule="nonzero"/><path stroke="#cccccc" stroke-width="1.0" stroke-linecap="butt" d="M110.5 240.5L1156.5 240.5" fill-rule="nonzero"/><path stroke="#cccccc" stroke-width="1.0" stroke-linecap="butt" d="M110.5 113.5L1156.5 113.5" fill-rule="nonzero"/><clipPath id="id_0"><path d="M110.85 113.916664L1156.15 113.916664L1156.15 621.15L110.85 621.15L110.85 113.916664Z" clip-rule="nonzero"/></clipPath><path stroke="#000000" stroke-width="2.0" stroke-linecap="butt" stroke-opacity="0.0" clip-path="url(#id_0)" d="M894.0 621.0L845.0 621.0L845.0 311.0C845.0 309.89542 845.89545 309.0 847.0 309.0L892.0 309.0C893.10455 309.0 894.0 309.89542 894.0 311.0Z" fill-rule="nonzero"/><path fill="#f9cb9c" clip-path="url(#id_0)" d="M894.0 621.0L845.0 621.0L845.0 311.0C845.0 309.89542 845.89545 309.0 847.0 309.0L892.0 309.0C893.10455 309.0 894.0 309.89542 894.0 311.0Z" fill-rule="nonzero"/><path stroke="#000000" stroke-width="2.0" stroke-linecap="butt" stroke-opacity="0.0" clip-path="url(#id_0)" d="M945.0 621.0L896.0 621.0L896.0 357.0C896.0 355.89542 896.89545 355.0 898.0 355.0L943.0 355.0C944.10455 355.0 945.0 355.89542 945.0 357.0Z" fill-rule="nonzero"/><path fill="#b6d7a8" clip-path="url(#id_0)" d="M945.0 621.0L896.0 621.0L896.0 357.0C896.0 355.89542 896.89545 355.0 898.0 355.0L943.0 355.0C944.10455 355.0 945.0 355.89542 945.0 357.0Z" fill-rule="nonzero"/><path stroke="#000000" stroke-width="2.0" stroke-linecap="butt" stroke-opacity="0.0" clip-path="url(#id_0)" d="M996.0 621.0L947.0 621.0L947.0 443.0C947.0 441.89542 947.89545 441.0 949.0 441.0L994.0 441.0C995.10455 441.0 996.0 441.89542 996.0 443.0Z" fill-rule="nonzero"/><path fill="#a2c4c9" clip-path="url(#id_0)" d="M996.0 621.0L947.0 621.0L947.0 443.0C947.0 441.89542 947.89545 441.0 949.0 441.0L994.0 441.0C995.10455 441.0 996.0 441.89542 996.0 443.0Z" fill-rule="nonzero"/><path stroke="#000000" stroke-width="2.0" stroke-linecap="butt" stroke-opacity="0.0" clip-path="url(#id_0)" d="M1047.0 621.0L998.0 621.0L998.0 375.0C998.0 373.89542 998.89545 373.0 1000.0 373.0L1045.0 373.0C1046.1046 373.0 1047.0 373.89542 1047.0 375.0Z" fill-rule="nonzero"/><path fill="#8e7cc3" clip-path="url(#id_0)" d="M1047.0 621.0L998.0 621.0L998.0 375.0C998.0 373.89542 998.89545 373.0 1000.0 373.0L1045.0 373.0C1046.1046 373.0 1047.0 373.89542 1047.0 375.0Z" fill-rule="nonzero"/><path stroke="#f9cb9c" stroke-width="3.0" stroke-linejoin="round" stroke-linecap="round" d="M845.71875 337.21713L847.75 337.21713Q849.6719 337.18588 850.7656 336.21713Q851.8594 335.23276 851.8594 333.56088Q851.8594 329.81088 848.125 329.81088Q846.375 329.81088 845.3281 330.81088Q844.28125 331.81088 844.28125 333.46713L841.5625 333.46713Q841.5625 330.93588 843.4219 329.264Q845.28125 327.5765 848.125 327.5765Q851.1406 327.5765 852.8594 329.18588Q854.5781 330.77963 854.5781 333.60776Q854.5781 335.014 853.6719 336.31088Q852.78125 337.60776 851.21875 338.264Q852.9844 338.81088 853.9375 340.10776Q854.8906 341.389 854.8906 343.24838Q854.8906 346.12338 853.0156 347.81088Q851.1406 349.49838 848.1406 349.49838Q845.1406 349.49838 843.25 347.87338Q841.375 346.24838 841.375 343.5765L844.1094 343.5765Q844.1094 345.264 845.2031 346.27963Q846.2969 347.27963 848.1406 347.27963Q850.1094 347.27963 851.1406 346.264Q852.1875 345.23276 852.1875 343.31088Q852.1875 341.4515 851.0469 340.46713Q849.90625 339.46713 847.75 339.43588L845.71875 339.43588L845.71875 337.21713ZM859.1094 347.77963Q859.1094 347.0765 859.5156 346.60776Q859.9375 346.139 860.7656 346.139Q861.6094 346.139 862.0469 346.60776Q862.4844 347.0765 862.4844 347.77963Q862.4844 348.4515 862.0469 348.90463Q861.6094 349.35776 860.7656 349.35776Q859.9375 349.35776 859.5156 348.90463Q859.1094 348.4515 859.1094 347.77963ZM880.75 349.2015L866.7656 349.2015L866.7656 347.24838L874.15625 339.04526Q875.7969 337.18588 876.4219 336.02963Q877.0469 334.85776 877.0469 333.60776Q877.0469 331.9515 876.03125 330.889Q875.0156 329.81088 873.3281 329.81088Q871.3125 329.81088 870.1875 330.96713Q869.0781 332.10776 869.0781 334.15463L866.3594 334.15463Q866.3594 331.21713 868.25 329.40463Q870.15625 327.5765 873.3281 327.5765Q876.3125 327.5765 878.03125 329.139Q879.7656 330.7015 879.7656 333.29526Q879.7656 336.43588 875.75 340.79526L870.0469 346.98276L880.75 346.98276L880.75 349.2015ZM887.71875 337.21713L889.75 337.21713Q891.6719 337.18588 892.7656 336.21713Q893.8594 335.23276 893.8594 333.56088Q893.8594 329.81088 890.125 329.81088Q888.375 329.81088 887.3281 330.81088Q886.28125 331.81088 886.28125 333.46713L883.5625 333.46713Q883.5625 330.93588 885.4219 329.264Q887.28125 327.5765 890.125 327.5765Q893.1406 327.5765 894.8594 329.18588Q896.5781 330.77963 896.5781 333.60776Q896.5781 335.014 895.6719 336.31088Q894.78125 337.60776 893.21875 338.264Q894.9844 338.81088 895.9375 340.10776Q896.8906 341.389 896.8906 343.24838Q896.8906 346.12338 895.0156 347.81088Q893.1406 349.49838 890.1406 349.49838Q887.1406 349.49838 885.25 347.87338Q883.375 346.24838 883.375 343.5765L886.1094 343.5765Q886.1094 345.264 887.2031 346.27963Q888.2969 347.27963 890.1406 347.27963Q892.1094 347.27963 893.1406 346.264Q894.1875 345.23276 894.1875 343.31088Q894.1875 341.4515 893.0469 340.46713Q891.90625 339.46713 889.75 339.43588L887.71875 339.43588L887.71875 337.21713Z" fill-rule="nonzero"/><path fill="#000000" d="M845.71875 337.21713L847.75 337.21713Q849.6719 337.18588 850.7656 336.21713Q851.8594 335.23276 851.8594 333.56088Q851.8594 329.81088 848.125 329.81088Q846.375 329.81088 845.3281 330.81088Q844.28125 331.81088 844.28125 333.46713L841.5625 333.46713Q841.5625 330.93588 843.4219 329.264Q845.28125 327.5765 848.125 327.5765Q851.1406 327.5765 852.8594 329.18588Q854.5781 330.77963 854.5781 333.60776Q854.5781 335.014 853.6719 336.31088Q852.78125 337.60776 851.21875 338.264Q852.9844 338.81088 853.9375 340.10776Q854.8906 341.389 854.8906 343.24838Q854.8906 346.12338 853.0156 347.81088Q851.1406 349.49838 848.1406 349.49838Q845.1406 349.49838 843.25 347.87338Q841.375 346.24838 841.375 343.5765L844.1094 343.5765Q844.1094 345.264 845.2031 346.27963Q846.2969 347.27963 848.1406 347.27963Q850.1094 347.27963 851.1406 346.264Q852.1875 345.23276 852.1875 343.31088Q852.1875 341.4515 851.0469 340.46713Q849.90625 339.46713 847.75 339.43588L845.71875 339.43588L845.71875 337.21713ZM859.1094 347.77963Q859.1094 347.0765 859.5156 346.60776Q859.9375 346.139 860.7656 346.139Q861.6094 346.139 862.0469 346.60776Q862.4844 347.0765 862.4844 347.77963Q862.4844 348.4515 862.0469 348.90463Q861.6094 349.35776 860.7656 349.35776Q859.9375 349.35776 859.5156 348.90463Q859.1094 348.4515 859.1094 347.77963ZM880.75 349.2015L866.7656 349.2015L866.7656 347.24838L874.15625 339.04526Q875.7969 337.18588 876.4219 336.02963Q877.0469 334.85776 877.0469 333.60776Q877.0469 331.9515 876.03125 330.889Q875.0156 329.81088 873.3281 329.81088Q871.3125 329.81088 870.1875 330.96713Q869.0781 332.10776 869.0781 334.15463L866.3594 334.15463Q866.3594 331.21713 868.25 329.40463Q870.15625 327.5765 873.3281 327.5765Q876.3125 327.5765 878.03125 329.139Q879.7656 330.7015 879.7656 333.29526Q879.7656 336.43588 875.75 340.79526L870.0469 346.98276L880.75 346.98276L880.75 349.2015ZM887.71875 337.21713L889.75 337.21713Q891.6719 337.18588 892.7656 336.21713Q893.8594 335.23276 893.8594 333.56088Q893.8594 329.81088 890.125 329.81088Q888.375 329.81088 887.3281 330.81088Q886.28125 331.81088 886.28125 333.46713L883.5625 333.46713Q883.5625 330.93588 885.4219 329.264Q887.28125 327.5765 890.125 327.5765Q893.1406 327.5765 894.8594 329.18588Q896.5781 330.77963 896.5781 333.60776Q896.5781 335.014 895.6719 336.31088Q894.78125 337.60776 893.21875 338.264Q894.9844 338.81088 895.9375 340.10776Q896.8906 341.389 896.8906 343.24838Q896.8906 346.12338 895.0156 347.81088Q893.1406 349.49838 890.1406 349.49838Q887.1406 349.49838 885.25 347.87338Q883.375 346.24838 883.375 343.5765L886.1094 343.5765Q886.1094 345.264 887.2031 346.27963Q888.2969 347.27963 890.1406 347.27963Q892.1094 347.27963 893.1406 346.264Q894.1875 345.23276 894.1875 343.31088Q894.1875 341.4515 893.0469 340.46713Q891.90625 339.46713 889.75 339.43588L887.71875 339.43588L887.71875 337.21713Z" fill-rule="nonzero"/><path stroke="#b6d7a8" stroke-width="3.0" stroke-linejoin="round" stroke-linecap="round" d="M896.71875 382.86813L898.75 382.86813Q900.6719 382.83688 901.7656 381.86813Q902.8594 380.88376 902.8594 379.21188Q902.8594 375.46188 899.125 375.46188Q897.375 375.46188 896.3281 376.46188Q895.28125 377.46188 895.28125 379.11813L892.5625 379.11813Q892.5625 376.58688 894.4219 374.915Q896.28125 373.2275 899.125 373.2275Q902.1406 373.2275 903.8594 374.83688Q905.5781 376.43063 905.5781 379.25876Q905.5781 380.665 904.6719 381.96188Q903.78125 383.25876 902.21875 383.915Q903.9844 384.46188 904.9375 385.75876Q905.8906 387.04 905.8906 388.89938Q905.8906 391.77438 904.0156 393.46188Q902.1406 395.14938 899.1406 395.14938Q896.1406 395.14938 894.25 393.52438Q892.375 391.89938 892.375 389.2275L895.1094 389.2275Q895.1094 390.915 896.2031 391.93063Q897.2969 392.93063 899.1406 392.93063Q901.1094 392.93063 902.1406 391.915Q903.1875 390.88376 903.1875 388.96188Q903.1875 387.1025 902.0469 386.11813Q900.90625 385.11813 898.75 385.08688L896.71875 385.08688L896.71875 382.86813ZM910.1094 393.43063Q910.1094 392.7275 910.5156 392.25876Q910.9375 391.79 911.7656 391.79Q912.6094 391.79 913.0469 392.25876Q913.4844 392.7275 913.4844 393.43063Q913.4844 394.1025 913.0469 394.55563Q912.6094 395.00876 911.7656 395.00876Q910.9375 395.00876 910.5156 394.55563Q910.1094 394.1025 910.1094 393.43063ZM931.1406 385.75876Q931.1406 390.50876 929.5156 392.83688Q927.8906 395.14938 924.4375 395.14938Q921.03125 395.14938 919.3906 392.88376Q917.75 390.61813 917.6875 386.11813L917.6875 382.50876Q917.6875 377.80563 919.3125 375.52438Q920.9375 373.2275 924.40625 373.2275Q927.84375 373.2275 929.46875 375.43063Q931.1094 377.63376 931.1406 382.24313L931.1406 385.75876ZM928.4375 382.05563Q928.4375 378.6025 927.46875 377.04Q926.5 375.46188 924.40625 375.46188Q922.3281 375.46188 921.375 377.02438Q920.4219 378.58688 920.3906 381.83688L920.3906 386.18063Q920.3906 389.63376 921.3906 391.29Q922.40625 392.93063 924.4375 392.93063Q926.4375 392.93063 927.40625 391.38376Q928.3906 389.82126 928.4375 386.49313L928.4375 382.05563ZM936.0156 384.165L937.1094 373.52438L948.03125 373.52438L948.03125 376.02438L939.40625 376.02438L938.75 381.83688Q940.3281 380.915 942.3125 380.915Q945.2344 380.915 946.9375 382.8525Q948.65625 384.77438 948.65625 388.05563Q948.65625 391.3525 946.875 393.25876Q945.09375 395.14938 941.90625 395.14938Q939.0781 395.14938 937.28125 393.58688Q935.5 392.00876 935.25 389.24313L937.8125 389.24313Q938.0625 391.07126 939.1094 392.00876Q940.1719 392.93063 941.90625 392.93063Q943.7969 392.93063 944.875 391.64938Q945.9531 390.3525 945.9531 388.08688Q945.9531 385.94626 944.78125 384.64938Q943.625 383.3525 941.6875 383.3525Q939.9219 383.3525 938.90625 384.13376L938.1875 384.71188L936.0156 384.165Z" fill-rule="nonzero"/><path fill="#000000" d="M896.71875 382.86813L898.75 382.86813Q900.6719 382.83688 901.7656 381.86813Q902.8594 380.88376 902.8594 379.21188Q902.8594 375.46188 899.125 375.46188Q897.375 375.46188 896.3281 376.46188Q895.28125 377.46188 895.28125 379.11813L892.5625 379.11813Q892.5625 376.58688 894.4219 374.915Q896.28125 373.2275 899.125 373.2275Q902.1406 373.2275 903.8594 374.83688Q905.5781 376.43063 905.5781 379.25876Q905.5781 380.665 904.6719 381.96188Q903.78125 383.25876 902.21875 383.915Q903.9844 384.46188 904.9375 385.75876Q905.8906 387.04 905.8906 388.89938Q905.8906 391.77438 904.0156 393.46188Q902.1406 395.14938 899.1406 395.14938Q896.1406 395.14938 894.25 393.52438Q892.375 391.89938 892.375 389.2275L895.1094 389.2275Q895.1094 390.915 896.2031 391.93063Q897.2969 392.93063 899.1406 392.93063Q901.1094 392.93063 902.1406 391.915Q903.1875 390.88376 903.1875 388.96188Q903.1875 387.1025 902.0469 386.11813Q900.90625 385.11813 898.75 385.08688L896.71875 385.08688L896.71875 382.86813ZM910.1094 393.43063Q910.1094 392.7275 910.5156 392.25876Q910.9375 391.79 911.7656 391.79Q912.6094 391.79 913.0469 392.25876Q913.4844 392.7275 913.4844 393.43063Q913.4844 394.1025 913.0469 394.55563Q912.6094 395.00876 911.7656 395.00876Q910.9375 395.00876 910.5156 394.55563Q910.1094 394.1025 910.1094 393.43063ZM931.1406 385.75876Q931.1406 390.50876 929.5156 392.83688Q927.8906 395.14938 924.4375 395.14938Q921.03125 395.14938 919.3906 392.88376Q917.75 390.61813 917.6875 386.11813L917.6875 382.50876Q917.6875 377.80563 919.3125 375.52438Q920.9375 373.2275 924.40625 373.2275Q927.84375 373.2275 929.46875 375.43063Q931.1094 377.63376 931.1406 382.24313L931.1406 385.75876ZM928.4375 382.05563Q928.4375 378.6025 927.46875 377.04Q926.5 375.46188 924.40625 375.46188Q922.3281 375.46188 921.375 377.02438Q920.4219 378.58688 920.3906 381.83688L920.3906 386.18063Q920.3906 389.63376 921.3906 391.29Q922.40625 392.93063 924.4375 392.93063Q926.4375 392.93063 927.40625 391.38376Q928.3906 389.82126 928.4375 386.49313L928.4375 382.05563ZM936.0156 384.165L937.1094 373.52438L948.03125 373.52438L948.03125 376.02438L939.40625 376.02438L938.75 381.83688Q940.3281 380.915 942.3125 380.915Q945.2344 380.915 946.9375 382.8525Q948.65625 384.77438 948.65625 388.05563Q948.65625 391.3525 946.875 393.25876Q945.09375 395.14938 941.90625 395.14938Q939.0781 395.14938 937.28125 393.58688Q935.5 392.00876 935.25 389.24313L937.8125 389.24313Q938.0625 391.07126 939.1094 392.00876Q940.1719 392.93063 941.90625 392.93063Q943.7969 392.93063 944.875 391.64938Q945.9531 390.3525 945.9531 388.08688Q945.9531 385.94626 944.78125 384.64938Q943.625 383.3525 941.6875 383.3525Q939.9219 383.3525 938.90625 384.13376L938.1875 384.71188L936.0156 384.165Z" fill-rule="nonzero"/><path stroke="#a2c4c9" stroke-width="3.0" stroke-linejoin="round" stroke-linecap="round" d="M957.75 481.08215L943.7656 481.08215L943.7656 479.12903L951.15625 470.9259Q952.7969 469.06653 953.4219 467.91028Q954.0469 466.7384 954.0469 465.4884Q954.0469 463.83215 953.03125 462.76965Q952.0156 461.69153 950.3281 461.69153Q948.3125 461.69153 947.1875 462.84778Q946.0781 463.9884 946.0781 466.03528L943.3594 466.03528Q943.3594 463.09778 945.25 461.28528Q947.15625 459.45715 950.3281 459.45715Q953.3125 459.45715 955.03125 461.01965Q956.7656 462.58215 956.7656 465.1759Q956.7656 468.31653 952.75 472.6759L947.0469 478.8634L957.75 478.8634L957.75 481.08215ZM961.1094 479.66028Q961.1094 478.95715 961.5156 478.4884Q961.9375 478.01965 962.7656 478.01965Q963.6094 478.01965 964.0469 478.4884Q964.4844 478.95715 964.4844 479.66028Q964.4844 480.33215 964.0469 480.78528Q963.6094 481.2384 962.7656 481.2384Q961.9375 481.2384 961.5156 480.78528Q961.1094 480.33215 961.1094 479.66028ZM982.5469 461.26965L973.7031 481.08215L970.875 481.08215L979.6719 461.97278L968.125 461.97278L968.125 459.75403L982.5469 459.75403L982.5469 461.26965ZM994.6719 481.08215L991.9531 481.08215L991.9531 463.01965L986.4844 465.01965L986.4844 462.56653L994.25 459.64465L994.6719 459.64465L994.6719 481.08215Z" fill-rule="nonzero"/><path fill="#000000" d="M957.75 481.08215L943.7656 481.08215L943.7656 479.12903L951.15625 470.9259Q952.7969 469.06653 953.4219 467.91028Q954.0469 466.7384 954.0469 465.4884Q954.0469 463.83215 953.03125 462.76965Q952.0156 461.69153 950.3281 461.69153Q948.3125 461.69153 947.1875 462.84778Q946.0781 463.9884 946.0781 466.03528L943.3594 466.03528Q943.3594 463.09778 945.25 461.28528Q947.15625 459.45715 950.3281 459.45715Q953.3125 459.45715 955.03125 461.01965Q956.7656 462.58215 956.7656 465.1759Q956.7656 468.31653 952.75 472.6759L947.0469 478.8634L957.75 478.8634L957.75 481.08215ZM961.1094 479.66028Q961.1094 478.95715 961.5156 478.4884Q961.9375 478.01965 962.7656 478.01965Q963.6094 478.01965 964.0469 478.4884Q964.4844 478.95715 964.4844 479.66028Q964.4844 480.33215 964.0469 480.78528Q963.6094 481.2384 962.7656 481.2384Q961.9375 481.2384 961.5156 480.78528Q961.1094 480.33215 961.1094 479.66028ZM982.5469 461.26965L973.7031 481.08215L970.875 481.08215L979.6719 461.97278L968.125 461.97278L968.125 459.75403L982.5469 459.75403L982.5469 461.26965ZM994.6719 481.08215L991.9531 481.08215L991.9531 463.01965L986.4844 465.01965L986.4844 462.56653L994.25 459.64465L994.6719 459.64465L994.6719 481.08215Z" fill-rule="nonzero"/><path stroke="#8e7cc3" stroke-width="3.0" stroke-linejoin="round" stroke-linecap="round" d="M1008.75 412.60565L994.7656 412.60565L994.7656 410.65253L1002.15625 402.4494Q1003.7969 400.59003 1004.4219 399.43378Q1005.0469 398.2619 1005.0469 397.0119Q1005.0469 395.35565 1004.03125 394.29315Q1003.0156 393.21503 1001.3281 393.21503Q999.3125 393.21503 998.1875 394.37128Q997.0781 395.5119 997.0781 397.55878L994.3594 397.55878Q994.3594 394.62128 996.25 392.80878Q998.15625 390.98065 1001.3281 390.98065Q1004.3125 390.98065 1006.03125 392.54315Q1007.7656 394.10565 1007.7656 396.6994Q1007.7656 399.84003 1003.75 404.1994L998.0469 410.3869L1008.75 410.3869L1008.75 412.60565ZM1012.1094 411.18378Q1012.1094 410.48065 1012.5156 410.0119Q1012.9375 409.54315 1013.7656 409.54315Q1014.6094 409.54315 1015.0469 410.0119Q1015.4844 410.48065 1015.4844 411.18378Q1015.4844 411.85565 1015.0469 412.30878Q1014.6094 412.7619 1013.7656 412.7619Q1012.9375 412.7619 1012.5156 412.30878Q1012.1094 411.85565 1012.1094 411.18378ZM1030.1562 403.23065Q1029.3125 404.24628 1028.125 404.85565Q1026.9531 405.46503 1025.5469 405.46503Q1023.7031 405.46503 1022.3281 404.55878Q1020.9531 403.65253 1020.2031 402.0119Q1019.46875 400.35565 1019.46875 398.37128Q1019.46875 396.23065 1020.28125 394.5119Q1021.09375 392.79315 1022.5781 391.8869Q1024.0781 390.98065 1026.0781 390.98065Q1029.2344 390.98065 1031.0625 393.35565Q1032.8906 395.71503 1032.8906 399.80878L1032.8906 400.59003Q1032.8906 406.8244 1030.4219 409.68378Q1027.9688 412.54315 1023.0 412.62128L1022.46875 412.62128L1022.46875 410.34003L1023.0469 410.34003Q1026.3906 410.27753 1028.1875 408.59003Q1030.0 406.8869 1030.1562 403.23065ZM1025.9844 403.23065Q1027.3438 403.23065 1028.4844 402.40253Q1029.6406 401.55878 1030.1719 400.3244L1030.1719 399.24628Q1030.1719 396.5744 1029.0156 394.91815Q1027.8594 393.24628 1026.0938 393.24628Q1024.2969 393.24628 1023.2031 394.62128Q1022.125 395.98065 1022.125 398.21503Q1022.125 400.40253 1023.1719 401.8244Q1024.2188 403.23065 1025.9844 403.23065ZM1049.7031 396.84003Q1049.7031 398.43378 1048.8594 399.68378Q1048.0156 400.93378 1046.5938 401.6369Q1048.25 402.35565 1049.2188 403.73065Q1050.2031 405.10565 1050.2031 406.85565Q1050.2031 409.62128 1048.3281 411.2619Q1046.4688 412.90253 1043.4219 412.90253Q1040.3438 412.90253 1038.4844 411.2619Q1036.6406 409.60565 1036.6406 406.85565Q1036.6406 405.12128 1037.5781 403.73065Q1038.5312 402.34003 1040.2031 401.62128Q1038.7812 400.91815 1037.9531 399.66815Q1037.1406 398.41815 1037.1406 396.84003Q1037.1406 394.15253 1038.8594 392.5744Q1040.5938 390.98065 1043.4219 390.98065Q1046.2344 390.98065 1047.9688 392.5744Q1049.7031 394.15253 1049.7031 396.84003ZM1047.5 406.79315Q1047.5 404.99628 1046.3594 403.87128Q1045.2188 402.74628 1043.3906 402.74628Q1041.5625 402.74628 1040.4531 403.87128Q1039.3438 404.98065 1039.3438 406.79315Q1039.3438 408.60565 1040.4219 409.65253Q1041.5 410.68378 1043.4219 410.68378Q1045.3281 410.68378 1046.4062 409.6369Q1047.5 408.59003 1047.5 406.79315ZM1043.4219 393.21503Q1041.8281 393.21503 1040.8281 394.1994Q1039.8438 395.18378 1039.8438 396.8869Q1039.8438 398.5119 1040.8125 399.52753Q1041.7969 400.52753 1043.4219 400.52753Q1045.0469 400.52753 1046.0156 399.52753Q1047.0 398.5119 1047.0 396.8869Q1047.0 395.2619 1045.9844 394.24628Q1044.9688 393.21503 1043.4219 393.21503Z" fill-rule="nonzero"/><path fill="#000000" d="M1008.75 412.60565L994.7656 412.60565L994.7656 410.65253L1002.15625 402.4494Q1003.7969 400.59003 1004.4219 399.43378Q1005.0469 398.2619 1005.0469 397.0119Q1005.0469 395.35565 1004.03125 394.29315Q1003.0156 393.21503 1001.3281 393.21503Q999.3125 393.21503 998.1875 394.37128Q997.0781 395.5119 997.0781 397.55878L994.3594 397.55878Q994.3594 394.62128 996.25 392.80878Q998.15625 390.98065 1001.3281 390.98065Q1004.3125 390.98065 1006.03125 392.54315Q1007.7656 394.10565 1007.7656 396.6994Q1007.7656 399.84003 1003.75 404.1994L998.0469 410.3869L1008.75 410.3869L1008.75 412.60565ZM1012.1094 411.18378Q1012.1094 410.48065 1012.5156 410.0119Q1012.9375 409.54315 1013.7656 409.54315Q1014.6094 409.54315 1015.0469 410.0119Q1015.4844 410.48065 1015.4844 411.18378Q1015.4844 411.85565 1015.0469 412.30878Q1014.6094 412.7619 1013.7656 412.7619Q1012.9375 412.7619 1012.5156 412.30878Q1012.1094 411.85565 1012.1094 411.18378ZM1030.1562 403.23065Q1029.3125 404.24628 1028.125 404.85565Q1026.9531 405.46503 1025.5469 405.46503Q1023.7031 405.46503 1022.3281 404.55878Q1020.9531 403.65253 1020.2031 402.0119Q1019.46875 400.35565 1019.46875 398.37128Q1019.46875 396.23065 1020.28125 394.5119Q1021.09375 392.79315 1022.5781 391.8869Q1024.0781 390.98065 1026.0781 390.98065Q1029.2344 390.98065 1031.0625 393.35565Q1032.8906 395.71503 1032.8906 399.80878L1032.8906 400.59003Q1032.8906 406.8244 1030.4219 409.68378Q1027.9688 412.54315 1023.0 412.62128L1022.46875 412.62128L1022.46875 410.34003L1023.0469 410.34003Q1026.3906 410.27753 1028.1875 408.59003Q1030.0 406.8869 1030.1562 403.23065ZM1025.9844 403.23065Q1027.3438 403.23065 1028.4844 402.40253Q1029.6406 401.55878 1030.1719 400.3244L1030.1719 399.24628Q1030.1719 396.5744 1029.0156 394.91815Q1027.8594 393.24628 1026.0938 393.24628Q1024.2969 393.24628 1023.2031 394.62128Q1022.125 395.98065 1022.125 398.21503Q1022.125 400.40253 1023.1719 401.8244Q1024.2188 403.23065 1025.9844 403.23065ZM1049.7031 396.84003Q1049.7031 398.43378 1048.8594 399.68378Q1048.0156 400.93378 1046.5938 401.6369Q1048.25 402.35565 1049.2188 403.73065Q1050.2031 405.10565 1050.2031 406.85565Q1050.2031 409.62128 1048.3281 411.2619Q1046.4688 412.90253 1043.4219 412.90253Q1040.3438 412.90253 1038.4844 411.2619Q1036.6406 409.60565 1036.6406 406.85565Q1036.6406 405.12128 1037.5781 403.73065Q1038.5312 402.34003 1040.2031 401.62128Q1038.7812 400.91815 1037.9531 399.66815Q1037.1406 398.41815 1037.1406 396.84003Q1037.1406 394.15253 1038.8594 392.5744Q1040.5938 390.98065 1043.4219 390.98065Q1046.2344 390.98065 1047.9688 392.5744Q1049.7031 394.15253 1049.7031 396.84003ZM1047.5 406.79315Q1047.5 404.99628 1046.3594 403.87128Q1045.2188 402.74628 1043.3906 402.74628Q1041.5625 402.74628 1040.4531 403.87128Q1039.3438 404.98065 1039.3438 406.79315Q1039.3438 408.60565 1040.4219 409.65253Q1041.5 410.68378 1043.4219 410.68378Q1045.3281 410.68378 1046.4062 409.6369Q1047.5 408.59003 1047.5 406.79315ZM1043.4219 393.21503Q1041.8281 393.21503 1040.8281 394.1994Q1039.8438 395.18378 1039.8438 396.8869Q1039.8438 398.5119 1040.8125 399.52753Q1041.7969 400.52753 1043.4219 400.52753Q1045.0469 400.52753 1046.0156 399.52753Q1047.0 398.5119 1047.0 396.8869Q1047.0 395.2619 1045.9844 394.24628Q1044.9688 393.21503 1043.4219 393.21503Z" fill-rule="nonzero"/><path fill="#000000" d="M51.959373 629.1188L51.959373 631.65L37.75625 631.65Q37.725 630.6969 38.06875 629.8219Q38.615623 628.3688 39.803123 626.9625Q40.990623 625.5563 43.25625 623.7125Q46.75625 620.8375 47.975 619.16565Q49.209373 617.47815 49.209373 615.9938Q49.209373 614.41565 48.084373 613.35315Q46.975 612.275 45.178123 612.275Q43.271873 612.275 42.115623 613.41565Q40.975 614.5563 40.959373 616.5719L38.25625 616.29065Q38.5375 613.2594 40.35 611.6813Q42.1625 610.0875 45.225 610.0875Q48.31875 610.0875 50.115623 611.8063Q51.928123 613.5094 51.928123 616.0563Q51.928123 617.3375 51.396873 618.5875Q50.865623 619.8219 49.646873 621.2125Q48.428123 622.5875 45.584373 624.97815Q43.209373 626.97815 42.5375 627.6969Q41.865623 628.4 41.428123 629.1188L51.959373 629.1188ZM56.56875 631.65L56.56875 628.65L59.584373 628.65L59.584373 631.65L56.56875 631.65ZM63.1 621.0563Q63.1 617.2438 63.88125 614.9313Q64.6625 612.60315 66.20937 611.35315Q67.75625 610.0875 70.1 610.0875Q71.81875 610.0875 73.11562 610.79065Q74.42812 611.47815 75.27187 612.79065Q76.13125 614.10315 76.61562 615.9938Q77.1 617.8688 77.1 621.0563Q77.1 624.8375 76.31875 627.16565Q75.55312 629.47815 74.00625 630.7438Q72.45937 632.0094 70.1 632.0094Q66.99062 632.0094 65.225 629.79065Q63.1 627.10315 63.1 621.0563ZM65.80312 621.0563Q65.80312 626.35315 67.0375 628.10315Q68.2875 629.85315 70.1 629.85315Q71.9125 629.85315 73.14687 628.10315Q74.39687 626.3375 74.39687 621.0563Q74.39687 615.7594 73.14687 614.025Q71.9125 612.275 70.06875 612.275Q68.25625 612.275 67.1625 613.8063Q65.80312 615.775 65.80312 621.0563ZM80.1 621.0563Q80.1 617.2438 80.88125 614.9313Q81.6625 612.60315 83.20937 611.35315Q84.75625 610.0875 87.1 610.0875Q88.81875 610.0875 90.11562 610.79065Q91.42812 611.47815 92.27187 612.79065Q93.13125 614.10315 93.61562 615.9938Q94.1 617.8688 94.1 621.0563Q94.1 624.8375 93.31875 627.16565Q92.55312 629.47815 91.00625 630.7438Q89.45937 632.0094 87.1 632.0094Q83.99062 632.0094 82.225 629.79065Q80.1 627.10315 80.1 621.0563ZM82.80312 621.0563Q82.80312 626.35315 84.0375 628.10315Q85.2875 629.85315 87.1 629.85315Q88.9125 629.85315 90.14687 628.10315Q91.39687 626.3375 91.39687 621.0563Q91.39687 615.7594 90.14687 614.025Q88.9125 612.275 87.06875 612.275Q85.25625 612.275 84.1625 613.8063Q82.80312 615.775 82.80312 621.0563Z" fill-rule="nonzero"/><path fill="#000000" d="M51.959373 502.31042L51.959373 504.84167L37.75625 504.84167Q37.725 503.88855 38.06875 503.01355Q38.615623 501.56042 39.803123 500.15417Q40.990623 498.74792 43.25625 496.90417Q46.75625 494.02917 47.975 492.3573Q49.209373 490.6698 49.209373 489.18542Q49.209373 487.6073 48.084373 486.5448Q46.975 485.46667 45.178123 485.46667Q43.271873 485.46667 42.115623 486.6073Q40.975 487.74792 40.959373 489.76355L38.25625 489.4823Q38.5375 486.45105 40.35 484.87292Q42.1625 483.27917 45.225 483.27917Q48.31875 483.27917 50.115623 484.99792Q51.928123 486.70105 51.928123 489.24792Q51.928123 490.52917 51.396873 491.77917Q50.865623 493.01355 49.646873 494.40417Q48.428123 495.77917 45.584373 498.1698Q43.209373 500.1698 42.5375 500.88855Q41.865623 501.59167 41.428123 502.31042L51.959373 502.31042ZM56.56875 504.84167L56.56875 501.84167L59.584373 501.84167L59.584373 504.84167L56.56875 504.84167ZM63.1 499.21667L65.86562 498.9823Q66.17812 500.99792 67.2875 502.02917Q68.4125 503.0448 69.99062 503.0448Q71.89687 503.0448 73.20937 501.6073Q74.5375 500.1698 74.5375 497.7948Q74.5375 495.5448 73.27187 494.24792Q72.00625 492.93542 69.94375 492.93542Q68.67812 492.93542 67.64687 493.51355Q66.63125 494.09167 66.0375 495.01355L63.56875 494.68542L65.64687 483.65417L76.31875 483.65417L76.31875 486.18542L67.75625 486.18542L66.6 491.95105Q68.5375 490.6073 70.64687 490.6073Q73.45937 490.6073 75.39687 492.56042Q77.33437 494.49792 77.33437 497.56042Q77.33437 500.4823 75.63125 502.6073Q73.56875 505.20105 69.99062 505.20105Q67.06875 505.20105 65.20937 503.56042Q63.365623 501.9198 63.1 499.21667ZM80.1 494.24792Q80.1 490.43542 80.88125 488.12292Q81.6625 485.7948 83.20937 484.5448Q84.75625 483.27917 87.1 483.27917Q88.81875 483.27917 90.11562 483.9823Q91.42812 484.6698 92.27187 485.9823Q93.13125 487.2948 93.61562 489.18542Q94.1 491.06042 94.1 494.24792Q94.1 498.02917 93.31875 500.3573Q92.55312 502.6698 91.00625 503.93542Q89.45937 505.20105 87.1 505.20105Q83.99062 505.20105 82.225 502.9823Q80.1 500.2948 80.1 494.24792ZM82.80312 494.24792Q82.80312 499.5448 84.0375 501.2948Q85.2875 503.0448 87.1 503.0448Q88.9125 503.0448 90.14687 501.2948Q91.39687 499.52917 91.39687 494.24792Q91.39687 488.95105 90.14687 487.21667Q88.9125 485.46667 87.06875 485.46667Q85.25625 485.46667 84.1625 486.99792Q82.80312 488.96667 82.80312 494.24792Z" fill-rule="nonzero"/><path fill="#000000" d="M38.115623 372.36145L40.740623 372.0177Q41.19375 374.25208 42.2875 375.25208Q43.38125 376.23645 44.94375 376.23645Q46.81875 376.23645 48.1 374.9552Q49.38125 373.65833 49.38125 371.75208Q49.38125 369.93958 48.19375 368.7677Q47.00625 367.5802 45.178123 367.5802Q44.428123 367.5802 43.303123 367.86145L43.6 365.54895Q43.865623 365.5802 44.021873 365.5802Q45.709373 365.5802 47.053123 364.7052Q48.4125 363.8302 48.4125 361.98645Q48.4125 360.54895 47.428123 359.59583Q46.44375 358.6427 44.896873 358.6427Q43.35 358.6427 42.31875 359.61145Q41.303123 360.56458 41.00625 362.50208L38.38125 362.03333Q38.85 359.3927 40.56875 357.93958Q42.2875 356.47083 44.834373 356.47083Q46.584373 356.47083 48.06875 357.23645Q49.553123 357.98645 50.334373 359.28333Q51.115623 360.5802 51.115623 362.04895Q51.115623 363.43958 50.365623 364.5802Q49.63125 365.72083 48.1625 366.40833Q50.06875 366.84583 51.115623 368.23645Q52.178123 369.61145 52.178123 371.68958Q52.178123 374.50208 50.115623 376.4552Q48.06875 378.40833 44.94375 378.40833Q42.115623 378.40833 40.240623 376.73645Q38.38125 375.04895 38.115623 372.36145ZM56.56875 378.03333L56.56875 375.03333L59.584373 375.03333L59.584373 378.03333L56.56875 378.03333ZM63.1 367.43958Q63.1 363.62708 63.88125 361.31458Q64.6625 358.98645 66.20937 357.73645Q67.75625 356.47083 70.1 356.47083Q71.81875 356.47083 73.11562 357.17395Q74.42812 357.86145 75.27187 359.17395Q76.13125 360.48645 76.61562 362.37708Q77.1 364.25208 77.1 367.43958Q77.1 371.22083 76.31875 373.54895Q75.55312 375.86145 74.00625 377.12708Q72.45937 378.3927 70.1 378.3927Q66.99062 378.3927 65.225 376.17395Q63.1 373.48645 63.1 367.43958ZM65.80312 367.43958Q65.80312 372.73645 67.0375 374.48645Q68.2875 376.23645 70.1 376.23645Q71.9125 376.23645 73.14687 374.48645Q74.39687 372.72083 74.39687 367.43958Q74.39687 362.1427 73.14687 360.40833Q71.9125 358.65833 70.06875 358.65833Q68.25625 358.65833 67.1625 360.18958Q65.80312 362.15833 65.80312 367.43958ZM80.1 367.43958Q80.1 363.62708 80.88125 361.31458Q81.6625 358.98645 83.20937 357.73645Q84.75625 356.47083 87.1 356.47083Q88.81875 356.47083 90.11562 357.17395Q91.42812 357.86145 92.27187 359.17395Q93.13125 360.48645 93.61562 362.37708Q94.1 364.25208 94.1 367.43958Q94.1 371.22083 93.31875 373.54895Q92.55312 375.86145 91.00625 377.12708Q89.45937 378.3927 87.1 378.3927Q83.99062 378.3927 82.225 376.17395Q80.1 373.48645 80.1 367.43958ZM82.80312 367.43958Q82.80312 372.73645 84.0375 374.48645Q85.2875 376.23645 87.1 376.23645Q88.9125 376.23645 90.14687 374.48645Q91.39687 372.72083 91.39687 367.43958Q91.39687 362.1427 90.14687 360.40833Q88.9125 358.65833 87.06875 358.65833Q85.25625 358.65833 84.1625 360.18958Q82.80312 362.15833 82.80312 367.43958Z" fill-rule="nonzero"/><path fill="#000000" d="M38.115623 245.55313L40.740623 245.20938Q41.19375 247.44376 42.2875 248.44376Q43.38125 249.42813 44.94375 249.42813Q46.81875 249.42813 48.1 248.14688Q49.38125 246.85 49.38125 244.94376Q49.38125 243.13126 48.19375 241.95938Q47.00625 240.77188 45.178123 240.77188Q44.428123 240.77188 43.303123 241.05313L43.6 238.74063Q43.865623 238.77188 44.021873 238.77188Q45.709373 238.77188 47.053123 237.89688Q48.4125 237.02188 48.4125 235.17813Q48.4125 233.74063 47.428123 232.7875Q46.44375 231.83438 44.896873 231.83438Q43.35 231.83438 42.31875 232.80313Q41.303123 233.75626 41.00625 235.69376L38.38125 235.225Q38.85 232.58438 40.56875 231.13126Q42.2875 229.6625 44.834373 229.6625Q46.584373 229.6625 48.06875 230.42813Q49.553123 231.17813 50.334373 232.475Q51.115623 233.77188 51.115623 235.24063Q51.115623 236.63126 50.365623 237.77188Q49.63125 238.9125 48.1625 239.6Q50.06875 240.0375 51.115623 241.42813Q52.178123 242.80313 52.178123 244.88126Q52.178123 247.69376 50.115623 249.64688Q48.06875 251.6 44.94375 251.6Q42.115623 251.6 40.240623 249.92813Q38.38125 248.24063 38.115623 245.55313ZM56.56875 251.225L56.56875 248.225L59.584373 248.225L59.584373 251.225L56.56875 251.225ZM63.1 245.6L65.86562 245.36563Q66.17812 247.38126 67.2875 248.4125Q68.4125 249.42813 69.99062 249.42813Q71.89687 249.42813 73.20937 247.99063Q74.5375 246.55313 74.5375 244.17813Q74.5375 241.92813 73.27187 240.63126Q72.00625 239.31876 69.94375 239.31876Q68.67812 239.31876 67.64687 239.89688Q66.63125 240.475 66.0375 241.39688L63.56875 241.06876L65.64687 230.0375L76.31875 230.0375L76.31875 232.56876L67.75625 232.56876L66.6 238.33438Q68.5375 236.99063 70.64687 236.99063Q73.45937 236.99063 75.39687 238.94376Q77.33437 240.88126 77.33437 243.94376Q77.33437 246.86563 75.63125 248.99063Q73.56875 251.58438 69.99062 251.58438Q67.06875 251.58438 65.20937 249.94376Q63.365623 248.30313 63.1 245.6ZM80.1 240.63126Q80.1 236.81876 80.88125 234.50626Q81.6625 232.17813 83.20937 230.92813Q84.75625 229.6625 87.1 229.6625Q88.81875 229.6625 90.11562 230.36563Q91.42812 231.05313 92.27187 232.36563Q93.13125 233.67813 93.61562 235.56876Q94.1 237.44376 94.1 240.63126Q94.1 244.4125 93.31875 246.74063Q92.55312 249.05313 91.00625 250.31876Q89.45937 251.58438 87.1 251.58438Q83.99062 251.58438 82.225 249.36563Q80.1 246.67813 80.1 240.63126ZM82.80312 240.63126Q82.80312 245.92813 84.0375 247.67813Q85.2875 249.42813 87.1 249.42813Q88.9125 249.42813 90.14687 247.67813Q91.39687 245.9125 91.39687 240.63126Q91.39687 235.33438 90.14687 233.6Q88.9125 231.85 87.06875 231.85Q85.25625 231.85 84.1625 233.38126Q82.80312 235.35 82.80312 240.63126Z" fill-rule="nonzero"/><path fill="#000000" d="M46.553123 124.416664L46.553123 119.27604L37.225 119.27604L37.225 116.854164L47.0375 102.947914L49.178123 102.947914L49.178123 116.854164L52.084373 116.854164L52.084373 119.27604L49.178123 119.27604L49.178123 124.416664L46.553123 124.416664ZM46.553123 116.854164L46.553123 107.18229L39.81875 116.854164L46.553123 116.854164ZM56.56875 124.416664L56.56875 121.416664L59.584373 121.416664L59.584373 124.416664L56.56875 124.416664ZM63.1 113.822914Q63.1 110.010414 63.88125 107.697914Q64.6625 105.36979 66.20937 104.11979Q67.75625 102.854164 70.1 102.854164Q71.81875 102.854164 73.11562 103.55729Q74.42812 104.24479 75.27187 105.55729Q76.13125 106.86979 76.61562 108.760414Q77.1 110.635414 77.1 113.822914Q77.1 117.604164 76.31875 119.93229Q75.55312 122.24479 74.00625 123.510414Q72.45937 124.77604 70.1 124.77604Q66.99062 124.77604 65.225 122.55729Q63.1 119.86979 63.1 113.822914ZM65.80312 113.822914Q65.80312 119.11979 67.0375 120.86979Q68.2875 122.61979 70.1 122.61979Q71.9125 122.61979 73.14687 120.86979Q74.39687 119.104164 74.39687 113.822914Q74.39687 108.52604 73.14687 106.791664Q71.9125 105.041664 70.06875 105.041664Q68.25625 105.041664 67.1625 106.572914Q65.80312 108.541664 65.80312 113.822914ZM80.1 113.822914Q80.1 110.010414 80.88125 107.697914Q81.6625 105.36979 83.20937 104.11979Q84.75625 102.854164 87.1 102.854164Q88.81875 102.854164 90.11562 103.55729Q91.42812 104.24479 92.27187 105.55729Q93.13125 106.86979 93.61562 108.760414Q94.1 110.635414 94.1 113.822914Q94.1 117.604164 93.31875 119.93229Q92.55312 122.24479 91.00625 123.510414Q89.45937 124.77604 87.1 124.77604Q83.99062 124.77604 82.225 122.55729Q80.1 119.86979 80.1 113.822914ZM82.80312 113.822914Q82.80312 119.11979 84.0375 120.86979Q85.2875 122.61979 87.1 122.61979Q88.9125 122.61979 90.14687 120.86979Q91.39687 119.104164 91.39687 113.822914Q91.39687 108.52604 90.14687 106.791664Q88.9125 105.041664 87.06875 105.041664Q85.25625 105.041664 84.1625 106.572914Q82.80312 108.541664 82.80312 113.822914Z" fill-rule="nonzero"/><path fill="#000000" d="M259.51703 653.29065L259.51703 650.9313L268.0014 650.91565L268.0014 658.35315Q266.04828 659.91565 263.97015 660.7125Q261.89203 661.4938 259.70453 661.4938Q256.7514 661.4938 254.32953 660.22815Q251.92328 658.9625 250.6889 656.5719Q249.45453 654.1813 249.45453 651.22815Q249.45453 648.29065 250.67328 645.7594Q251.90765 643.22815 254.20453 641.9938Q256.5014 640.7594 259.5014 640.7594Q261.67328 640.7594 263.42328 641.4625Q265.1889 642.16565 266.17328 643.4313Q267.17328 644.6813 267.70453 646.7125L265.3139 647.3688Q264.86078 645.8375 264.1889 644.9625Q263.51703 644.0875 262.26703 643.5719Q261.03265 643.04065 259.51703 643.04065Q257.6889 643.04065 256.36078 643.5875Q255.03265 644.1344 254.22015 645.04065Q253.40765 645.9469 252.95453 647.025Q252.1889 648.8844 252.1889 651.0563Q252.1889 653.7438 253.11078 655.5563Q254.04828 657.35315 255.79828 658.22815Q257.5639 659.10315 259.54828 659.10315Q261.26703 659.10315 262.90765 658.4469Q264.54828 657.775 265.40765 657.025L265.40765 653.29065L259.51703 653.29065ZM281.32953 661.15L281.32953 659.0094Q279.64203 661.47815 276.72015 661.47815Q275.4389 661.47815 274.3139 660.9938Q273.20453 660.4938 272.65765 659.7594Q272.1264 659.0094 271.90765 657.91565Q271.76703 657.1969 271.76703 655.6188L271.76703 646.6344L274.22015 646.6344L274.22015 654.6813Q274.22015 656.60315 274.3764 657.275Q274.61078 658.2438 275.36078 658.8063Q276.11078 659.35315 277.22015 659.35315Q278.32953 659.35315 279.29828 658.79065Q280.26703 658.22815 280.67328 657.2594Q281.07953 656.275 281.07953 654.41565L281.07953 646.6344L283.53265 646.6344L283.53265 661.15L281.32953 661.15ZM287.82953 643.9313L287.82953 641.10315L290.29828 641.10315L290.29828 643.9313L287.82953 643.9313ZM287.82953 661.15L287.82953 646.6344L290.29828 646.6344L290.29828 661.15L287.82953 661.15ZM303.23578 661.15L303.23578 659.3219Q301.86078 661.47815 299.17328 661.47815Q297.4389 661.47815 295.98578 660.525Q294.53265 659.5563 293.72015 657.85315Q292.92328 656.1344 292.92328 653.9Q292.92328 651.72815 293.64203 649.9625Q294.3764 648.1813 295.82953 647.2438Q297.28265 646.3063 299.0639 646.3063Q300.3764 646.3063 301.39203 646.8688Q302.42328 647.41565 303.07953 648.29065L303.07953 641.10315L305.51703 641.10315L305.51703 661.15L303.23578 661.15ZM295.45453 653.9Q295.45453 656.6969 296.6264 658.0719Q297.8139 659.4469 299.40765 659.4469Q301.01703 659.4469 302.14203 658.1344Q303.28265 656.8219 303.28265 654.10315Q303.28265 651.1344 302.1264 649.7438Q300.98578 648.3375 299.29828 648.3375Q297.65765 648.3375 296.54828 649.6813Q295.45453 651.025 295.45453 653.9ZM319.7514 656.47815L322.29828 656.79065Q321.70453 659.0094 320.0639 660.2438Q318.4389 661.47815 315.90765 661.47815Q312.73578 661.47815 310.86078 659.525Q309.0014 657.5563 309.0014 654.0094Q309.0014 650.35315 310.8764 648.3375Q312.76703 646.3063 315.78265 646.3063Q318.6889 646.3063 320.53265 648.29065Q322.3764 650.2594 322.3764 653.8688Q322.3764 654.0875 322.36078 654.525L311.53265 654.525Q311.67328 656.91565 312.89203 658.1813Q314.11078 659.4469 315.92328 659.4469Q317.28265 659.4469 318.23578 658.7438Q319.1889 658.025 319.7514 656.47815ZM311.67328 652.4938L319.78265 652.4938Q319.6264 650.66565 318.86078 649.7438Q317.67328 648.3219 315.79828 648.3219Q314.11078 648.3219 312.95453 649.4625Q311.79828 650.5875 311.67328 652.4938ZM334.23578 661.15L334.23578 659.3219Q332.86078 661.47815 330.17328 661.47815Q328.4389 661.47815 326.98578 660.525Q325.53265 659.5563 324.72015 657.85315Q323.92328 656.1344 323.92328 653.9Q323.92328 651.72815 324.64203 649.9625Q325.3764 648.1813 326.82953 647.2438Q328.28265 646.3063 330.0639 646.3063Q331.3764 646.3063 332.39203 646.8688Q333.42328 647.41565 334.07953 648.29065L334.07953 641.10315L336.51703 641.10315L336.51703 661.15L334.23578 661.15ZM326.45453 653.9Q326.45453 656.6969 327.6264 658.0719Q328.8139 659.4469 330.40765 659.4469Q332.01703 659.4469 333.14203 658.1344Q334.28265 656.8219 334.28265 654.10315Q334.28265 651.1344 333.1264 649.7438Q331.98578 648.3375 330.29828 648.3375Q328.65765 648.3375 327.54828 649.6813Q326.45453 651.025 326.45453 653.9ZM354.1889 658.9469L354.54828 661.1188Q353.5014 661.3375 352.6889 661.3375Q351.34515 661.3375 350.61078 660.91565Q349.8764 660.4938 349.5639 659.8063Q349.26703 659.1188 349.26703 656.9L349.26703 648.54065L347.47015 648.54065L347.47015 646.6344L349.26703 646.6344L349.26703 643.04065L351.72015 641.5563L351.72015 646.6344L354.1889 646.6344L354.1889 648.54065L351.72015 648.54065L351.72015 657.04065Q351.72015 658.0875 351.84515 658.3844Q351.97015 658.6813 352.26703 658.8688Q352.5639 659.04065 353.11078 659.04065Q353.51703 659.04065 354.1889 658.9469ZM355.90765 653.8844Q355.90765 649.85315 358.14203 647.91565Q360.01703 646.3063 362.70453 646.3063Q365.70453 646.3063 367.59515 648.275Q369.5014 650.22815 369.5014 653.6813Q369.5014 656.4938 368.65765 658.10315Q367.82953 659.6969 366.22015 660.5875Q364.61078 661.47815 362.70453 661.47815Q359.65765 661.47815 357.78265 659.525Q355.90765 657.5719 355.90765 653.8844ZM358.42328 653.8844Q358.42328 656.6813 359.64203 658.0719Q360.86078 659.4469 362.70453 659.4469Q364.54828 659.4469 365.7514 658.0563Q366.97015 656.66565 366.97015 653.8063Q366.97015 651.1188 365.7514 649.72815Q364.53265 648.3375 362.70453 648.3375Q360.86078 648.3375 359.64203 649.72815Q358.42328 651.10315 358.42328 653.8844ZM381.32953 661.15L381.32953 659.0094Q379.64203 661.47815 376.72015 661.47815Q375.4389 661.47815 374.3139 660.9938Q373.20453 660.4938 372.65765 659.7594Q372.1264 659.0094 371.90765 657.91565Q371.76703 657.1969 371.76703 655.6188L371.76703 646.6344L374.22015 646.6344L374.22015 654.6813Q374.22015 656.60315 374.3764 657.275Q374.61078 658.2438 375.36078 658.8063Q376.11078 659.35315 377.22015 659.35315Q378.32953 659.35315 379.29828 658.79065Q380.26703 658.22815 380.67328 657.2594Q381.07953 656.275 381.07953 654.41565L381.07953 646.6344L383.53265 646.6344L383.53265 661.15L381.32953 661.15ZM387.78265 661.15L387.78265 646.6344L390.0014 646.6344L390.0014 648.8375Q390.84515 647.29065 391.5639 646.8063Q392.28265 646.3063 393.14203 646.3063Q394.39203 646.3063 395.67328 647.0875L394.82953 649.3844Q393.92328 648.8375 393.03265 648.8375Q392.22015 648.8375 391.57953 649.3375Q390.9389 649.8219 390.65765 650.6813Q390.2514 651.9938 390.2514 653.54065L390.2514 661.15L387.78265 661.15Z" fill-rule="nonzero"/><path fill="#000000" d="M291.01703 700.04065Q288.98578 697.47815 287.57953 694.04065Q286.17328 690.5875 286.17328 686.8844Q286.17328 683.6344 287.22015 680.65Q288.45453 677.1969 291.01703 673.7594L292.78265 673.7594Q291.1264 676.60315 290.59515 677.8219Q289.76703 679.7125 289.28265 681.7594Q288.6889 684.3219 288.6889 686.9Q288.6889 693.47815 292.78265 700.04065L291.01703 700.04065ZM295.3139 694.15L295.3139 679.6344L297.53265 679.6344L297.53265 681.6969Q299.1264 679.3063 302.15765 679.3063Q303.47015 679.3063 304.5639 679.775Q305.67328 680.2438 306.22015 681.0094Q306.76703 681.775 306.98578 682.8219Q307.11078 683.5094 307.11078 685.22815L307.11078 694.15L304.65765 694.15L304.65765 685.3219Q304.65765 683.8063 304.36078 683.0719Q304.07953 682.3219 303.34515 681.8844Q302.61078 681.4313 301.6264 681.4313Q300.0639 681.4313 298.92328 682.4313Q297.78265 683.4313 297.78265 686.2125L297.78265 694.15L295.3139 694.15ZM332.26703 682.3688L319.03265 682.3688L319.03265 680.0719L332.26703 680.0719L332.26703 682.3688ZM332.26703 688.4469L319.03265 688.4469L319.03265 686.15L332.26703 686.15L332.26703 688.4469ZM342.6264 684.2594Q342.6264 680.7125 343.36078 678.54065Q344.09515 676.3688 345.53265 675.1969Q346.98578 674.025 349.17328 674.025Q350.78265 674.025 352.0014 674.6813Q353.22015 675.3219 354.0014 676.5563Q354.79828 677.775 355.2514 679.54065Q355.70453 681.29065 355.70453 684.2594Q355.70453 687.79065 354.97015 689.9625Q354.2514 692.1188 352.8139 693.3063Q351.3764 694.4938 349.17328 694.4938Q346.26703 694.4938 344.61078 692.41565Q342.6264 689.91565 342.6264 684.2594ZM345.15765 684.2594Q345.15765 689.1969 346.3139 690.8375Q347.47015 692.4625 349.17328 692.4625Q350.86078 692.4625 352.01703 690.8219Q353.17328 689.1813 353.17328 684.2594Q353.17328 679.3219 352.01703 677.6969Q350.86078 676.0563 349.14203 676.0563Q347.4389 676.0563 346.4389 677.4938Q345.15765 679.3219 345.15765 684.2594ZM360.92328 700.04065L359.17328 700.04065Q363.2514 693.47815 363.2514 686.9Q363.2514 684.3375 362.67328 681.8063Q362.20453 679.7594 361.36078 677.8688Q360.82953 676.6344 359.17328 673.7594L360.92328 673.7594Q363.5014 677.1969 364.73578 680.65Q365.78265 683.6344 365.78265 686.8844Q365.78265 690.5875 364.36078 694.04065Q362.95453 697.47815 360.92328 700.04065Z" fill-rule="nonzero"/><path fill="#000000" d="M513.7656 661.15L513.7656 643.47815L507.15625 643.47815L507.15625 641.10315L523.0469 641.10315L523.0469 643.47815L516.40625 643.47815L516.40625 661.15L513.7656 661.15ZM523.4375 653.8844Q523.4375 649.85315 525.6719 647.91565Q527.5469 646.3063 530.2344 646.3063Q533.2344 646.3063 535.125 648.275Q537.03125 650.22815 537.03125 653.6813Q537.03125 656.4938 536.1875 658.10315Q535.3594 659.6969 533.75 660.5875Q532.1406 661.47815 530.2344 661.47815Q527.1875 661.47815 525.3125 659.525Q523.4375 657.5719 523.4375 653.8844ZM525.9531 653.8844Q525.9531 656.6813 527.1719 658.0719Q528.3906 659.4469 530.2344 659.4469Q532.0781 659.4469 533.28125 658.0563Q534.5 656.66565 534.5 653.8063Q534.5 651.1188 533.28125 649.72815Q532.0625 648.3375 530.2344 648.3375Q528.3906 648.3375 527.1719 649.72815Q525.9531 651.10315 525.9531 653.8844ZM548.8594 661.15L548.8594 659.0094Q547.1719 661.47815 544.25 661.47815Q542.96875 661.47815 541.84375 660.9938Q540.7344 660.4938 540.1875 659.7594Q539.65625 659.0094 539.4375 657.91565Q539.2969 657.1969 539.2969 655.6188L539.2969 646.6344L541.75 646.6344L541.75 654.6813Q541.75 656.60315 541.90625 657.275Q542.1406 658.2438 542.8906 658.8063Q543.6406 659.35315 544.75 659.35315Q545.8594 659.35315 546.8281 658.79065Q547.7969 658.22815 548.2031 657.2594Q548.6094 656.275 548.6094 654.41565L548.6094 646.6344L551.0625 646.6344L551.0625 661.15L548.8594 661.15ZM555.3125 661.15L555.3125 646.6344L557.53125 646.6344L557.53125 648.8375Q558.375 647.29065 559.09375 646.8063Q559.8125 646.3063 560.6719 646.3063Q561.9219 646.3063 563.2031 647.0875L562.3594 649.3844Q561.4531 648.8375 560.5625 648.8375Q559.75 648.8375 559.1094 649.3375Q558.46875 649.8219 558.1875 650.6813Q557.78125 651.9938 557.78125 653.54065L557.78125 661.15L555.3125 661.15ZM575.03125 661.15L570.5781 646.6344L573.125 646.6344L575.4375 655.0094L576.2969 658.1344Q576.3594 657.9 577.0469 655.1344L579.3594 646.6344L581.8906 646.6344L584.0625 655.0563L584.78125 657.8219L585.625 655.025L588.1094 646.6344L590.5 646.6344L585.96875 661.15L583.40625 661.15L581.09375 652.4469L580.53125 649.97815L577.59375 661.15L575.03125 661.15ZM591.3594 643.9313L591.3594 641.10315L593.8281 641.10315L593.8281 643.9313L591.3594 643.9313ZM591.3594 661.15L591.3594 646.6344L593.8281 646.6344L593.8281 661.15L591.3594 661.15ZM602.71875 658.9469L603.0781 661.1188Q602.03125 661.3375 601.21875 661.3375Q599.875 661.3375 599.1406 660.91565Q598.40625 660.4938 598.09375 659.8063Q597.7969 659.1188 597.7969 656.9L597.7969 648.54065L596.0 648.54065L596.0 646.6344L597.7969 646.6344L597.7969 643.04065L600.25 641.5563L600.25 646.6344L602.71875 646.6344L602.71875 648.54065L600.25 648.54065L600.25 657.04065Q600.25 658.0875 600.375 658.3844Q600.5 658.6813 600.7969 658.8688Q601.09375 659.04065 601.6406 659.04065Q602.0469 659.04065 602.71875 658.9469ZM605.34375 661.15L605.34375 641.10315L607.8125 641.10315L607.8125 648.29065Q609.53125 646.3063 612.15625 646.3063Q613.7656 646.3063 614.9531 646.9469Q616.1406 647.5719 616.65625 648.6969Q617.1719 649.8219 617.1719 651.9469L617.1719 661.15L614.71875 661.15L614.71875 651.9469Q614.71875 650.10315 613.90625 649.2594Q613.1094 648.41565 611.65625 648.41565Q610.5625 648.41565 609.59375 648.9938Q608.625 649.5563 608.21875 650.525Q607.8125 651.4938 607.8125 653.2125L607.8125 661.15L605.34375 661.15ZM638.8281 659.35315Q637.4531 660.525 636.1875 661.0094Q634.9219 661.47815 633.46875 661.47815Q631.0781 661.47815 629.7969 660.3063Q628.5156 659.1344 628.5156 657.3219Q628.5156 656.2594 629.0 655.3844Q629.4844 654.4938 630.2656 653.9625Q631.0625 653.4313 632.0469 653.15Q632.7656 652.9625 634.2344 652.775Q637.2031 652.4313 638.6094 651.9313Q638.625 651.4313 638.625 651.29065Q638.625 649.79065 637.9375 649.16565Q636.9844 648.3375 635.125 648.3375Q633.3906 648.3375 632.5625 648.9469Q631.7344 649.5563 631.34375 651.10315L628.9375 650.775Q629.2656 649.22815 630.0156 648.275Q630.7656 647.3219 632.1875 646.8219Q633.6094 646.3063 635.4844 646.3063Q637.34375 646.3063 638.5 646.7438Q639.6719 647.1813 640.21875 647.85315Q640.7656 648.5094 640.9844 649.5094Q641.1094 650.15 641.1094 651.79065L641.1094 655.0719Q641.1094 658.4938 641.2656 659.41565Q641.4219 660.3219 641.8906 661.15L639.3125 661.15Q638.9375 660.3844 638.8281 659.35315ZM638.6094 653.8688Q637.28125 654.41565 634.59375 654.79065Q633.0781 655.0094 632.4531 655.29065Q631.8281 655.5563 631.4844 656.0875Q631.1406 656.60315 631.1406 657.2594Q631.1406 658.2438 631.875 658.9Q632.625 659.5563 634.0625 659.5563Q635.4844 659.5563 636.59375 658.9313Q637.7031 658.3063 638.21875 657.22815Q638.6094 656.3844 638.6094 654.7594L638.6094 653.8688ZM654.6094 661.15L652.3281 661.15L652.3281 641.10315L654.7969 641.10315L654.7969 648.2594Q656.3594 646.3063 658.7656 646.3063Q660.1094 646.3063 661.2969 646.85315Q662.5 647.3844 663.2656 648.3688Q664.0469 649.3375 664.4844 650.72815Q664.9219 652.10315 664.9219 653.66565Q664.9219 657.4 663.0781 659.4469Q661.2344 661.47815 658.65625 661.47815Q656.0781 661.47815 654.6094 659.3375L654.6094 661.15ZM654.59375 653.775Q654.59375 656.3844 655.2969 657.5563Q656.46875 659.4469 658.4375 659.4469Q660.0625 659.4469 661.2344 658.0563Q662.40625 656.65 662.40625 653.8688Q662.40625 651.025 661.28125 649.6813Q660.15625 648.3219 658.5469 648.3219Q656.9375 648.3219 655.7656 649.72815Q654.59375 651.1344 654.59375 653.775ZM668.3125 661.15L668.3125 646.6344L670.53125 646.6344L670.53125 648.8375Q671.375 647.29065 672.09375 646.8063Q672.8125 646.3063 673.6719 646.3063Q674.9219 646.3063 676.2031 647.0875L675.3594 649.3844Q674.4531 648.8375 673.5625 648.8375Q672.75 648.8375 672.1094 649.3375Q671.46875 649.8219 671.1875 650.6813Q670.78125 651.9938 670.78125 653.54065L670.78125 661.15L668.3125 661.15ZM676.4375 653.8844Q676.4375 649.85315 678.6719 647.91565Q680.5469 646.3063 683.2344 646.3063Q686.2344 646.3063 688.125 648.275Q690.03125 650.22815 690.03125 653.6813Q690.03125 656.4938 689.1875 658.10315Q688.3594 659.6969 686.75 660.5875Q685.1406 661.47815 683.2344 661.47815Q680.1875 661.47815 678.3125 659.525Q676.4375 657.5719 676.4375 653.8844ZM678.9531 653.8844Q678.9531 656.6813 680.1719 658.0719Q681.3906 659.4469 683.2344 659.4469Q685.0781 659.4469 686.28125 658.0563Q687.5 656.66565 687.5 653.8063Q687.5 651.1188 686.28125 649.72815Q685.0625 648.3375 683.2344 648.3375Q681.3906 648.3375 680.1719 649.72815Q678.9531 651.10315 678.9531 653.8844ZM701.8281 655.8375L704.2344 656.15Q703.84375 658.65 702.2031 660.0719Q700.5781 661.47815 698.2031 661.47815Q695.21875 661.47815 693.40625 659.54065Q691.59375 657.5875 691.59375 653.9469Q691.59375 651.5875 692.375 649.8375Q693.15625 648.0719 694.75 647.1969Q696.34375 646.3063 698.21875 646.3063Q700.5781 646.3063 702.0781 647.5094Q703.5781 648.6969 704.0156 650.9L701.6094 651.2594Q701.28125 649.8063 700.40625 649.0719Q699.53125 648.3219 698.3125 648.3219Q696.4531 648.3219 695.28125 649.66565Q694.125 650.9938 694.125 653.8688Q694.125 656.8063 695.2344 658.1344Q696.3594 659.4469 698.1719 659.4469Q699.625 659.4469 700.59375 658.5719Q701.5625 657.6813 701.8281 655.8375ZM706.34375 661.15L706.34375 641.10315L708.8125 641.10315L708.8125 648.29065Q710.53125 646.3063 713.15625 646.3063Q714.7656 646.3063 715.9531 646.9469Q717.1406 647.5719 717.65625 648.6969Q718.1719 649.8219 718.1719 651.9469L718.1719 661.15L715.71875 661.15L715.71875 651.9469Q715.71875 650.10315 714.90625 649.2594Q714.1094 648.41565 712.65625 648.41565Q711.5625 648.41565 710.59375 648.9938Q709.625 649.5563 709.21875 650.525Q708.8125 651.4938 708.8125 653.2125L708.8125 661.15L706.34375 661.15ZM731.8594 661.15L731.8594 659.0094Q730.1719 661.47815 727.25 661.47815Q725.96875 661.47815 724.84375 660.9938Q723.7344 660.4938 723.1875 659.7594Q722.65625 659.0094 722.4375 657.91565Q722.2969 657.1969 722.2969 655.6188L722.2969 646.6344L724.75 646.6344L724.75 654.6813Q724.75 656.60315 724.90625 657.275Q725.1406 658.2438 725.8906 658.8063Q726.6406 659.35315 727.75 659.35315Q728.8594 659.35315 729.8281 658.79065Q730.7969 658.22815 731.2031 657.2594Q731.6094 656.275 731.6094 654.41565L731.6094 646.6344L734.0625 646.6344L734.0625 661.15L731.8594 661.15ZM738.3125 661.15L738.3125 646.6344L740.53125 646.6344L740.53125 648.8375Q741.375 647.29065 742.09375 646.8063Q742.8125 646.3063 743.6719 646.3063Q744.9219 646.3063 746.2031 647.0875L745.3594 649.3844Q744.4531 648.8375 743.5625 648.8375Q742.75 648.8375 742.1094 649.3375Q741.46875 649.8219 741.1875 650.6813Q740.78125 651.9938 740.78125 653.54065L740.78125 661.15L738.3125 661.15ZM757.28125 656.47815L759.8281 656.79065Q759.2344 659.0094 757.59375 660.2438Q755.96875 661.47815 753.4375 661.47815Q750.2656 661.47815 748.3906 659.525Q746.53125 657.5563 746.53125 654.0094Q746.53125 650.35315 748.40625 648.3375Q750.2969 646.3063 753.3125 646.3063Q756.21875 646.3063 758.0625 648.29065Q759.90625 650.2594 759.90625 653.8688Q759.90625 654.0875 759.8906 654.525L749.0625 654.525Q749.2031 656.91565 750.4219 658.1813Q751.6406 659.4469 753.4531 659.4469Q754.8125 659.4469 755.7656 658.7438Q756.71875 658.025 757.28125 656.47815ZM749.2031 652.4938L757.3125 652.4938Q757.15625 650.66565 756.3906 649.7438Q755.2031 648.3219 753.3281 648.3219Q751.6406 648.3219 750.4844 649.4625Q749.3281 650.5875 749.2031 652.4938Z" fill-rule="nonzero"/><path fill="#000000" d="M599.0469 700.04065Q597.0156 697.47815 595.6094 694.04065Q594.2031 690.5875 594.2031 686.8844Q594.2031 683.6344 595.25 680.65Q596.4844 677.1969 599.0469 673.7594L600.8125 673.7594Q599.15625 676.60315 598.625 677.8219Q597.7969 679.7125 597.3125 681.7594Q596.71875 684.3219 596.71875 686.9Q596.71875 693.47815 600.8125 700.04065L599.0469 700.04065ZM603.34375 694.15L603.34375 679.6344L605.5625 679.6344L605.5625 681.6969Q607.15625 679.3063 610.1875 679.3063Q611.5 679.3063 612.59375 679.775Q613.7031 680.2438 614.25 681.0094Q614.7969 681.775 615.0156 682.8219Q615.1406 683.5094 615.1406 685.22815L615.1406 694.15L612.6875 694.15L612.6875 685.3219Q612.6875 683.8063 612.3906 683.0719Q612.1094 682.3219 611.375 681.8844Q610.6406 681.4313 609.65625 681.4313Q608.09375 681.4313 606.9531 682.4313Q605.8125 683.4313 605.8125 686.2125L605.8125 694.15L603.34375 694.15ZM640.2969 682.3688L627.0625 682.3688L627.0625 680.0719L640.2969 680.0719L640.2969 682.3688ZM640.2969 688.4469L627.0625 688.4469L627.0625 686.15L640.2969 686.15L640.2969 688.4469ZM650.65625 684.2594Q650.65625 680.7125 651.3906 678.54065Q652.125 676.3688 653.5625 675.1969Q655.0156 674.025 657.2031 674.025Q658.8125 674.025 660.03125 674.6813Q661.25 675.3219 662.03125 676.5563Q662.8281 677.775 663.28125 679.54065Q663.7344 681.29065 663.7344 684.2594Q663.7344 687.79065 663.0 689.9625Q662.28125 692.1188 660.84375 693.3063Q659.40625 694.4938 657.2031 694.4938Q654.2969 694.4938 652.6406 692.41565Q650.65625 689.91565 650.65625 684.2594ZM653.1875 684.2594Q653.1875 689.1969 654.34375 690.8375Q655.5 692.4625 657.2031 692.4625Q658.8906 692.4625 660.0469 690.8219Q661.2031 689.1813 661.2031 684.2594Q661.2031 679.3219 660.0469 677.6969Q658.8906 676.0563 657.1719 676.0563Q655.46875 676.0563 654.46875 677.4938Q653.1875 679.3219 653.1875 684.2594ZM668.9531 700.04065L667.2031 700.04065Q671.28125 693.47815 671.28125 686.9Q671.28125 684.3375 670.7031 681.8063Q670.2344 679.7594 669.3906 677.8688Q668.8594 676.6344 667.2031 673.7594L668.9531 673.7594Q671.53125 677.1969 672.7656 680.65Q673.8125 683.6344 673.8125 686.8844Q673.8125 690.5875 672.3906 694.04065Q670.9844 697.47815 668.9531 700.04065Z" fill-rule="nonzero"/><path fill="#000000" d="M843.2955 661.15L843.2955 643.47815L836.6861 643.47815L836.6861 641.10315L852.5767 641.10315L852.5767 643.47815L845.9361 643.47815L845.9361 661.15L843.2955 661.15ZM852.96735 653.8844Q852.96735 649.85315 855.2017 647.91565Q857.0767 646.3063 859.7642 646.3063Q862.7642 646.3063 864.65485 648.275Q866.5611 650.22815 866.5611 653.6813Q866.5611 656.4938 865.71735 658.10315Q864.8892 659.6969 863.27985 660.5875Q861.6705 661.47815 859.7642 661.47815Q856.71735 661.47815 854.84235 659.525Q852.96735 657.5719 852.96735 653.8844ZM855.483 653.8844Q855.483 656.6813 856.7017 658.0719Q857.9205 659.4469 859.7642 659.4469Q861.608 659.4469 862.8111 658.0563Q864.02985 656.66565 864.02985 653.8063Q864.02985 651.1188 862.8111 649.72815Q861.59235 648.3375 859.7642 648.3375Q857.9205 648.3375 856.7017 649.72815Q855.483 651.10315 855.483 653.8844ZM878.3892 661.15L878.3892 659.0094Q876.7017 661.47815 873.77985 661.47815Q872.4986 661.47815 871.3736 660.9938Q870.2642 660.4938 869.71735 659.7594Q869.1861 659.0094 868.96735 657.91565Q868.8267 657.1969 868.8267 655.6188L868.8267 646.6344L871.27985 646.6344L871.27985 654.6813Q871.27985 656.60315 871.4361 657.275Q871.6705 658.2438 872.4205 658.8063Q873.1705 659.35315 874.27985 659.35315Q875.3892 659.35315 876.358 658.79065Q877.3267 658.22815 877.733 657.2594Q878.1392 656.275 878.1392 654.41565L878.1392 646.6344L880.59235 646.6344L880.59235 661.15L878.3892 661.15ZM884.84235 661.15L884.84235 646.6344L887.0611 646.6344L887.0611 648.8375Q887.90485 647.29065 888.6236 646.8063Q889.34235 646.3063 890.2017 646.3063Q891.4517 646.3063 892.733 647.0875L891.8892 649.3844Q890.983 648.8375 890.09235 648.8375Q889.27985 648.8375 888.6392 649.3375Q887.9986 649.8219 887.71735 650.6813Q887.3111 651.9938 887.3111 653.54065L887.3111 661.15L884.84235 661.15ZM904.5611 661.15L900.108 646.6344L902.65485 646.6344L904.96735 655.0094L905.8267 658.1344Q905.8892 657.9 906.5767 655.1344L908.8892 646.6344L911.4205 646.6344L913.59235 655.0563L914.3111 657.8219L915.15485 655.025L917.6392 646.6344L920.02985 646.6344L915.4986 661.15L912.9361 661.15L910.6236 652.4469L910.0611 649.97815L907.1236 661.15L904.5611 661.15ZM920.8892 643.9313L920.8892 641.10315L923.358 641.10315L923.358 643.9313L920.8892 643.9313ZM920.8892 661.15L920.8892 646.6344L923.358 646.6344L923.358 661.15L920.8892 661.15ZM932.2486 658.9469L932.608 661.1188Q931.5611 661.3375 930.7486 661.3375Q929.40485 661.3375 928.6705 660.91565Q927.9361 660.4938 927.6236 659.8063Q927.3267 659.1188 927.3267 656.9L927.3267 648.54065L925.52985 648.54065L925.52985 646.6344L927.3267 646.6344L927.3267 643.04065L929.77985 641.5563L929.77985 646.6344L932.2486 646.6344L932.2486 648.54065L929.77985 648.54065L929.77985 657.04065Q929.77985 658.0875 929.90485 658.3844Q930.02985 658.6813 930.3267 658.8688Q930.6236 659.04065 931.1705 659.04065Q931.5767 659.04065 932.2486 658.9469ZM934.8736 661.15L934.8736 641.10315L937.34235 641.10315L937.34235 648.29065Q939.0611 646.3063 941.6861 646.3063Q943.2955 646.3063 944.483 646.9469Q945.6705 647.5719 946.1861 648.6969Q946.7017 649.8219 946.7017 651.9469L946.7017 661.15L944.2486 661.15L944.2486 651.9469Q944.2486 650.10315 943.4361 649.2594Q942.6392 648.41565 941.1861 648.41565Q940.09235 648.41565 939.1236 648.9938Q938.15485 649.5563 937.7486 650.525Q937.34235 651.4938 937.34235 653.2125L937.34235 661.15L934.8736 661.15ZM956.983 661.15L964.6861 641.10315L967.5455 641.10315L975.7486 661.15L972.733 661.15L970.3892 655.0719L962.0142 655.0719L959.8111 661.15L956.983 661.15ZM962.77985 652.91565L969.5611 652.91565L967.483 647.3688Q966.5142 644.8375 966.0611 643.2125Q965.6705 645.1344 964.96735 647.04065L962.77985 652.91565ZM978.233 661.15L978.233 641.10315L987.1236 641.10315Q989.7955 641.10315 991.1861 641.65Q992.59235 642.1813 993.4205 643.5563Q994.2486 644.91565 994.2486 646.5719Q994.2486 648.7125 992.8736 650.1813Q991.4986 651.6344 988.608 652.025Q989.65485 652.54065 990.2017 653.025Q991.3736 654.0875 992.40485 655.6969L995.8892 661.15L992.5611 661.15L989.90485 656.97815Q988.7486 655.1813 987.9986 654.22815Q987.2486 653.2594 986.6392 652.8844Q986.0455 652.4938 985.4361 652.3375Q984.983 652.2438 983.96735 652.2438L980.8892 652.2438L980.8892 661.15L978.233 661.15ZM980.8892 649.9469L986.59235 649.9469Q988.40485 649.9469 989.4205 649.5719Q990.4517 649.1969 990.983 648.3688Q991.5142 647.54065 991.5142 646.5719Q991.5142 645.15 990.483 644.2438Q989.4517 643.3219 987.233 643.3219L980.8892 643.3219L980.8892 649.9469ZM1003.983 661.15L1011.6861 641.10315L1014.5455 641.10315L1022.7486 661.15L1019.733 661.15L1017.3892 655.0719L1009.0142 655.0719L1006.8111 661.15L1003.983 661.15ZM1009.77985 652.91565L1016.5611 652.91565L1014.483 647.3688Q1013.5142 644.8375 1013.0611 643.2125Q1012.6705 645.1344 1011.96735 647.04065L1009.77985 652.91565ZM1024.8735 666.7125L1024.8735 646.6344L1027.1235 646.6344L1027.1235 648.5094Q1027.9048 647.41565 1028.9048 646.8688Q1029.9048 646.3063 1031.3267 646.3063Q1033.186 646.3063 1034.6079 647.2594Q1036.0298 648.2125 1036.7485 649.9625Q1037.4829 651.6969 1037.4829 653.775Q1037.4829 656.0094 1036.686 657.79065Q1035.8892 659.5719 1034.3579 660.525Q1032.8267 661.47815 1031.1548 661.47815Q1029.9204 661.47815 1028.936 660.9625Q1027.9673 660.4313 1027.3423 659.65L1027.3423 666.7125L1024.8735 666.7125ZM1027.1079 653.97815Q1027.1079 656.775 1028.2329 658.1188Q1029.3735 659.4469 1030.9829 659.4469Q1032.6235 659.4469 1033.7954 658.0719Q1034.9673 656.6813 1034.9673 653.7594Q1034.9673 650.9938 1033.8267 649.6188Q1032.686 648.22815 1031.0923 648.22815Q1029.5298 648.22815 1028.311 649.6969Q1027.1079 651.16565 1027.1079 653.97815ZM1040.8735 666.7125L1040.8735 646.6344L1043.1235 646.6344L1043.1235 648.5094Q1043.9048 647.41565 1044.9048 646.8688Q1045.9048 646.3063 1047.3267 646.3063Q1049.186 646.3063 1050.6079 647.2594Q1052.0298 648.2125 1052.7485 649.9625Q1053.4829 651.6969 1053.4829 653.775Q1053.4829 656.0094 1052.686 657.79065Q1051.8892 659.5719 1050.3579 660.525Q1048.8267 661.47815 1047.1548 661.47815Q1045.9204 661.47815 1044.936 660.9625Q1043.9673 660.4313 1043.3423 659.65L1043.3423 666.7125L1040.8735 666.7125ZM1043.1079 653.97815Q1043.1079 656.775 1044.2329 658.1188Q1045.3735 659.4469 1046.9829 659.4469Q1048.6235 659.4469 1049.7954 658.0719Q1050.9673 656.6813 1050.9673 653.7594Q1050.9673 650.9938 1049.8267 649.6188Q1048.686 648.22815 1047.0923 648.22815Q1045.5298 648.22815 1044.311 649.6969Q1043.1079 651.16565 1043.1079 653.97815Z" fill-rule="nonzero"/><path fill="#000000" d="M903.0767 700.04065Q901.0455 697.47815 899.6392 694.04065Q898.233 690.5875 898.233 686.8844Q898.233 683.6344 899.27985 680.65Q900.5142 677.1969 903.0767 673.7594L904.84235 673.7594Q903.1861 676.60315 902.65485 677.8219Q901.8267 679.7125 901.34235 681.7594Q900.7486 684.3219 900.7486 686.9Q900.7486 693.47815 904.84235 700.04065L903.0767 700.04065ZM907.3736 694.15L907.3736 679.6344L909.59235 679.6344L909.59235 681.6969Q911.1861 679.3063 914.21735 679.3063Q915.52985 679.3063 916.6236 679.775Q917.733 680.2438 918.27985 681.0094Q918.8267 681.775 919.0455 682.8219Q919.1705 683.5094 919.1705 685.22815L919.1705 694.15L916.71735 694.15L916.71735 685.3219Q916.71735 683.8063 916.4205 683.0719Q916.1392 682.3219 915.40485 681.8844Q914.6705 681.4313 913.6861 681.4313Q912.1236 681.4313 910.983 682.4313Q909.84235 683.4313 909.84235 686.2125L909.84235 694.15L907.3736 694.15ZM944.3267 682.3688L931.09235 682.3688L931.09235 680.0719L944.3267 680.0719L944.3267 682.3688ZM944.3267 688.4469L931.09235 688.4469L931.09235 686.15L944.3267 686.15L944.3267 688.4469ZM955.0611 689.5094L957.4205 689.29065Q957.733 690.9625 958.5767 691.7125Q959.4205 692.4625 960.7486 692.4625Q961.8892 692.4625 962.733 691.9469Q963.59235 691.4313 964.1392 690.5719Q964.6861 689.6969 965.0455 688.22815Q965.4205 686.7438 965.4205 685.2125Q965.4205 685.04065 965.40485 684.7125Q964.6705 685.8844 963.3892 686.6188Q962.1236 687.35315 960.6236 687.35315Q958.1392 687.35315 956.40485 685.5563Q954.6861 683.7438 954.6861 680.79065Q954.6861 677.7438 956.483 675.8844Q958.2955 674.025 960.9986 674.025Q962.9517 674.025 964.5611 675.0875Q966.1861 676.1344 967.02985 678.0875Q967.8736 680.025 967.8736 683.7125Q967.8736 687.5563 967.02985 689.8375Q966.2017 692.1188 964.5455 693.3063Q962.90485 694.4938 960.7017 694.4938Q958.34235 694.4938 956.84235 693.1969Q955.358 691.8844 955.0611 689.5094ZM965.1392 680.66565Q965.1392 678.5563 964.0142 677.3063Q962.8892 676.0563 961.2955 676.0563Q959.65485 676.0563 958.4361 677.4Q957.21735 678.7438 957.21735 680.8688Q957.21735 682.79065 958.3736 683.9938Q959.52985 685.1813 961.233 685.1813Q962.9361 685.1813 964.02985 683.9938Q965.1392 682.79065 965.1392 680.66565ZM970.7017 688.85315L973.1705 688.525Q973.59235 690.6188 974.608 691.54065Q975.6236 692.4625 977.09235 692.4625Q978.8267 692.4625 980.0142 691.2594Q981.21735 690.0563 981.21735 688.29065Q981.21735 686.5875 980.108 685.4938Q978.9986 684.3844 977.2955 684.3844Q976.59235 684.3844 975.5611 684.66565L975.8267 682.4938Q976.0767 682.525 976.233 682.525Q977.7955 682.525 979.0455 681.7125Q980.3111 680.8844 980.3111 679.1813Q980.3111 677.8219 979.3892 676.9313Q978.483 676.04065 977.02985 676.04065Q975.608 676.04065 974.6392 676.9469Q973.6861 677.85315 973.4205 679.65L970.9517 679.2125Q971.40485 676.7438 972.9986 675.3844Q974.608 674.025 976.983 674.025Q978.6236 674.025 979.9986 674.72815Q981.3892 675.4313 982.108 676.65Q982.84235 677.8688 982.84235 679.22815Q982.84235 680.525 982.1392 681.60315Q981.4517 682.66565 980.09235 683.29065Q981.858 683.6969 982.84235 684.9938Q983.8267 686.29065 983.8267 688.22815Q983.8267 690.85315 981.90485 692.6813Q979.9986 694.5094 977.0767 694.5094Q974.4361 694.5094 972.6861 692.9313Q970.9517 691.35315 970.7017 688.85315ZM988.983 700.04065L987.233 700.04065Q991.3111 693.47815 991.3111 686.9Q991.3111 684.3375 990.733 681.8063Q990.2642 679.7594 989.4205 677.8688Q988.8892 676.6344 987.233 673.7594L988.983 673.7594Q991.5611 677.1969 992.7955 680.65Q993.84235 683.6344 993.84235 686.8844Q993.84235 690.5875 992.4205 694.04065Q991.0142 697.47815 988.983 700.04065Z" fill-rule="nonzero"/><path fill="#f9cb9c" d="M241.5 49.35C241.5 48.797714 241.94771 48.35 242.5 48.35L252.5 48.35C253.05229 48.35 253.5 48.797714 253.5 49.35L253.5 59.35C253.5 59.902287 253.05229 60.35 252.5 60.35L242.5 60.35C241.94771 60.35 241.5 59.902287 241.5 59.35Z" fill-rule="nonzero"/><path fill="#1a1a1a" d="M263.875 64.85L263.875 43.38125L279.40625 43.38125L279.40625 45.9125L266.71875 45.9125L266.71875 52.490623L278.59375 52.490623L278.59375 55.00625L266.71875 55.00625L266.71875 62.31875L279.90625 62.31875L279.90625 64.85L263.875 64.85ZM293.57812 64.85L293.57812 62.88125Q292.09375 65.20937 289.21875 65.20937Q287.35938 65.20937 285.79688 64.17812Q284.23438 63.146873 283.375 61.31875Q282.53125 59.475 282.53125 57.084373Q282.53125 54.75625 283.29688 52.865623Q284.07812 50.959373 285.625 49.959373Q287.1875 48.94375 289.10938 48.94375Q290.51562 48.94375 291.60938 49.5375Q292.70312 50.13125 293.39062 51.084373L293.39062 43.38125L296.01562 43.38125L296.01562 64.85L293.57812 64.85ZM285.23438 57.084373Q285.23438 60.06875 286.48438 61.553123Q287.75 63.0375 289.46875 63.0375Q291.20312 63.0375 292.40625 61.63125Q293.60938 60.209373 293.60938 57.303123Q293.60938 54.115623 292.375 52.63125Q291.15625 51.13125 289.35938 51.13125Q287.59375 51.13125 286.40625 52.56875Q285.23438 53.990623 285.23438 57.084373ZM310.67188 64.85L310.67188 62.56875Q308.85938 65.20937 305.73438 65.20937Q304.35938 65.20937 303.15625 64.67812Q301.96875 64.14687 301.39062 63.35Q300.8125 62.553123 300.57812 61.396873Q300.42188 60.615623 300.42188 58.928123L300.42188 49.2875L303.0625 49.2875L303.0625 57.928123Q303.0625 59.990623 303.21875 60.709373Q303.46875 61.740623 304.26562 62.334373Q305.07812 62.928123 306.26562 62.928123Q307.45312 62.928123 308.48438 62.31875Q309.53125 61.709373 309.95312 60.6625Q310.39062 59.615623 310.39062 57.63125L310.39062 49.2875L313.03125 49.2875L313.03125 64.85L310.67188 64.85ZM327.625 59.146873L330.21875 59.490623Q329.79688 62.1625 328.04688 63.69375Q326.29688 65.20937 323.75 65.20937Q320.54688 65.20937 318.60938 63.115623Q316.67188 61.021873 316.67188 57.13125Q316.67188 54.615623 317.5 52.725Q318.34375 50.834373 320.04688 49.896873Q321.75 48.94375 323.76562 48.94375Q326.29688 48.94375 327.90625 50.225Q329.51562 51.50625 329.96875 53.865623L327.40625 54.25625Q327.04688 52.69375 326.10938 51.9125Q325.1875 51.115623 323.85938 51.115623Q321.875 51.115623 320.625 52.5375Q319.375 53.959373 319.375 57.053123Q319.375 60.19375 320.57812 61.615623Q321.78125 63.0375 323.71875 63.0375Q325.26562 63.0375 326.29688 62.084373Q327.34375 61.13125 327.625 59.146873ZM342.625 62.928123Q341.17188 64.17812 339.8125 64.69375Q338.45312 65.20937 336.90625 65.20937Q334.34375 65.20937 332.95312 63.959373Q331.57812 62.69375 331.57812 60.740623Q331.57812 59.6 332.09375 58.6625Q332.625 57.709373 333.46875 57.146873Q334.3125 56.56875 335.35938 56.2875Q336.14062 56.06875 337.70312 55.88125Q340.90625 55.50625 342.40625 54.975Q342.42188 54.428123 342.42188 54.2875Q342.42188 52.678123 341.67188 52.021873Q340.67188 51.13125 338.67188 51.13125Q336.8125 51.13125 335.92188 51.7875Q335.04688 52.428123 334.60938 54.084373L332.03125 53.725Q332.39062 52.06875 333.1875 51.053123Q334.0 50.0375 335.51562 49.490623Q337.04688 48.94375 339.0625 48.94375Q341.04688 48.94375 342.28125 49.4125Q343.53125 49.88125 344.10938 50.6Q344.70312 51.303123 344.9375 52.38125Q345.07812 53.053123 345.07812 54.81875L345.07812 58.334373Q345.07812 62.00625 345.23438 62.990623Q345.40625 63.959373 345.90625 64.85L343.15625 64.85Q342.75 64.02187 342.625 62.928123ZM342.40625 57.0375Q340.96875 57.63125 338.10938 58.0375Q336.48438 58.271873 335.79688 58.56875Q335.125 58.865623 334.75 59.428123Q334.39062 59.990623 334.39062 60.678123Q334.39062 61.725 335.1875 62.428123Q336.0 63.13125 337.53125 63.13125Q339.0625 63.13125 340.23438 62.475Q341.42188 61.803123 341.98438 60.646873Q342.40625 59.75625 342.40625 58.00625L342.40625 57.0375ZM354.23438 62.490623L354.60938 64.81875Q353.5 65.05312 352.625 65.05312Q351.1875 65.05312 350.39062 64.6Q349.60938 64.14687 349.28125 63.4125Q348.96875 62.6625 348.96875 60.2875L348.96875 51.35L347.03125 51.35L347.03125 49.2875L348.96875 49.2875L348.96875 45.44375L351.57812 43.865623L351.57812 49.2875L354.23438 49.2875L354.23438 51.35L351.57812 51.35L351.57812 60.44375Q351.57812 61.56875 351.71875 61.896873Q351.85938 62.209373 352.17188 62.4125Q352.48438 62.6 353.07812 62.6Q353.51562 62.6 354.23438 62.490623ZM356.5 46.4125L356.5 43.38125L359.125 43.38125L359.125 46.4125L356.5 46.4125ZM356.5 64.85L356.5 49.2875L359.125 49.2875L359.125 64.85L356.5 64.85ZM362.5 57.06875Q362.5 52.75625 364.90625 50.6625Q366.90625 48.94375 369.79688 48.94375Q373.0 48.94375 375.03125 51.053123Q377.07812 53.146873 377.07812 56.85Q377.07812 59.85 376.17188 61.584373Q375.26562 63.303123 373.54688 64.25625Q371.82812 65.20937 369.79688 65.20937Q366.53125 65.20937 364.51562 63.115623Q362.5 61.00625 362.5 57.06875ZM365.20312 57.06875Q365.20312 60.053123 366.5 61.553123Q367.8125 63.0375 369.79688 63.0375Q371.75 63.0375 373.04688 61.5375Q374.35938 60.0375 374.35938 56.990623Q374.35938 54.1 373.04688 52.615623Q371.73438 51.13125 369.79688 51.13125Q367.8125 51.13125 366.5 52.615623Q365.20312 54.084373 365.20312 57.06875ZM379.48438 64.85L379.48438 49.2875L381.84375 49.2875L381.84375 51.50625Q383.5625 48.94375 386.79688 48.94375Q388.20312 48.94375 389.375 49.459373Q390.5625 49.959373 391.14062 50.7875Q391.73438 51.6 391.96875 52.725Q392.125 53.459373 392.125 55.2875L392.125 64.85L389.48438 64.85L389.48438 55.38125Q389.48438 53.771873 389.17188 52.975Q388.875 52.178123 388.07812 51.709373Q387.29688 51.225 386.25 51.225Q384.5625 51.225 383.32812 52.303123Q382.10938 53.365623 382.10938 56.35L382.10938 64.85L379.48438 64.85Z" fill-rule="nonzero"/><path fill="#b6d7a8" d="M410.5 49.35C410.5 48.797714 410.94772 48.35 411.5 48.35L421.5 48.35C422.05228 48.35 422.5 48.797714 422.5 49.35L422.5 59.35C422.5 59.902287 422.05228 60.35 421.5 60.35L411.5 60.35C410.94772 60.35 410.5 59.902287 410.5 59.35Z" fill-rule="nonzero"/><path fill="#1a1a1a" d="M446.90625 43.38125L449.75 43.38125L449.75 55.7875Q449.75 59.021873 449.01562 60.928123Q448.28125 62.834373 446.35938 64.02187Q444.45312 65.20937 441.35938 65.20937Q438.34375 65.20937 436.42188 64.17812Q434.5 63.13125 433.67188 61.1625Q432.85938 59.19375 432.85938 55.7875L432.85938 43.38125L435.70312 43.38125L435.70312 55.771873Q435.70312 58.56875 436.21875 59.896873Q436.73438 61.209373 438.0 61.928123Q439.28125 62.646873 441.10938 62.646873Q444.23438 62.646873 445.5625 61.225Q446.90625 59.803123 446.90625 55.771873L446.90625 43.38125ZM453.42188 60.209373L456.03125 59.803123Q456.25 61.365623 457.25 62.209373Q458.25 63.0375 460.0625 63.0375Q461.875 63.0375 462.75 62.303123Q463.64062 61.553123 463.64062 60.553123Q463.64062 59.6625 462.85938 59.146873Q462.3125 58.803123 460.15625 58.25625Q457.26562 57.521873 456.14062 56.990623Q455.01562 56.459373 454.4375 55.521873Q453.85938 54.56875 453.85938 53.428123Q453.85938 52.38125 454.32812 51.50625Q454.8125 50.615623 455.64062 50.021873Q456.25 49.56875 457.3125 49.25625Q458.375 48.94375 459.59375 48.94375Q461.42188 48.94375 462.79688 49.475Q464.1875 49.990623 464.84375 50.896873Q465.51562 51.803123 465.75 53.303123L463.17188 53.6625Q463.0 52.459373 462.15625 51.7875Q461.3125 51.115623 459.78125 51.115623Q457.96875 51.115623 457.1875 51.709373Q456.40625 52.303123 456.40625 53.115623Q456.40625 53.63125 456.73438 54.0375Q457.0625 54.459373 457.75 54.740623Q458.14062 54.88125 460.07812 55.4125Q462.875 56.1625 463.96875 56.646873Q465.07812 57.115623 465.70312 58.021873Q466.34375 58.928123 466.34375 60.271873Q466.34375 61.6 465.57812 62.771873Q464.8125 63.928123 463.35938 64.56875Q461.90625 65.20937 460.07812 65.20937Q457.04688 65.20937 455.45312 63.94375Q453.85938 62.678123 453.42188 60.209373ZM480.125 59.834373L482.85938 60.178123Q482.20312 62.56875 480.45312 63.896873Q478.71875 65.20937 476.01562 65.20937Q472.59375 65.20937 470.59375 63.1Q468.59375 60.990623 468.59375 57.209373Q468.59375 53.271873 470.60938 51.115623Q472.64062 48.94375 475.85938 48.94375Q478.98438 48.94375 480.95312 51.06875Q482.9375 53.19375 482.9375 57.0375Q482.9375 57.271873 482.92188 57.740623L471.32812 57.740623Q471.46875 60.303123 472.76562 61.678123Q474.07812 63.0375 476.03125 63.0375Q477.46875 63.0375 478.5 62.271873Q479.53125 61.50625 480.125 59.834373ZM471.46875 55.584373L480.15625 55.584373Q479.98438 53.615623 479.15625 52.63125Q477.90625 51.115623 475.89062 51.115623Q474.07812 51.115623 472.84375 52.334373Q471.60938 53.5375 471.46875 55.584373ZM486.10938 64.85L486.10938 51.35L483.78125 51.35L483.78125 49.2875L486.10938 49.2875L486.10938 47.63125Q486.10938 46.06875 486.39062 45.303123Q486.76562 44.2875 487.71875 43.646873Q488.6875 43.00625 490.42188 43.00625Q491.53125 43.00625 492.875 43.271873L492.48438 45.56875Q491.65625 45.428123 490.92188 45.428123Q489.71875 45.428123 489.21875 45.94375Q488.73438 46.44375 488.73438 47.85L488.73438 49.2875L491.76562 49.2875L491.76562 51.35L488.73438 51.35L488.73438 64.85L486.10938 64.85ZM503.67188 64.85L503.67188 62.56875Q501.85938 65.20937 498.73438 65.20937Q497.35938 65.20937 496.15625 64.67812Q494.96875 64.14687 494.39062 63.35Q493.8125 62.553123 493.57812 61.396873Q493.42188 60.615623 493.42188 58.928123L493.42188 49.2875L496.0625 49.2875L496.0625 57.928123Q496.0625 59.990623 496.21875 60.709373Q496.46875 61.740623 497.26562 62.334373Q498.07812 62.928123 499.26562 62.928123Q500.45312 62.928123 501.48438 62.31875Q502.53125 61.709373 502.95312 60.6625Q503.39062 59.615623 503.39062 57.63125L503.39062 49.2875L506.03125 49.2875L506.03125 64.85L503.67188 64.85ZM510.42188 64.85L510.42188 43.38125L513.0625 43.38125L513.0625 64.85L510.42188 64.85ZM517.4844 64.85L517.4844 49.2875L519.84375 49.2875L519.84375 51.50625Q521.5625 48.94375 524.7969 48.94375Q526.2031 48.94375 527.375 49.459373Q528.5625 49.959373 529.1406 50.7875Q529.7344 51.6 529.96875 52.725Q530.125 53.459373 530.125 55.2875L530.125 64.85L527.4844 64.85L527.4844 55.38125Q527.4844 53.771873 527.1719 52.975Q526.875 52.178123 526.0781 51.709373Q525.2969 51.225 524.25 51.225Q522.5625 51.225 521.3281 52.303123Q520.1094 53.365623 520.1094 56.35L520.1094 64.85L517.4844 64.85ZM545.125 59.834373L547.8594 60.178123Q547.2031 62.56875 545.4531 63.896873Q543.71875 65.20937 541.0156 65.20937Q537.59375 65.20937 535.59375 63.1Q533.59375 60.990623 533.59375 57.209373Q533.59375 53.271873 535.6094 51.115623Q537.6406 48.94375 540.8594 48.94375Q543.9844 48.94375 545.9531 51.06875Q547.9375 53.19375 547.9375 57.0375Q547.9375 57.271873 547.9219 57.740623L536.3281 57.740623Q536.46875 60.303123 537.7656 61.678123Q539.0781 63.0375 541.03125 63.0375Q542.46875 63.0375 543.5 62.271873Q544.53125 61.50625 545.125 59.834373ZM536.46875 55.584373L545.15625 55.584373Q544.9844 53.615623 544.15625 52.63125Q542.90625 51.115623 540.8906 51.115623Q539.0781 51.115623 537.84375 52.334373Q536.6094 53.5375 536.46875 55.584373ZM549.4219 60.209373L552.03125 59.803123Q552.25 61.365623 553.25 62.209373Q554.25 63.0375 556.0625 63.0375Q557.875 63.0375 558.75 62.303123Q559.6406 61.553123 559.6406 60.553123Q559.6406 59.6625 558.8594 59.146873Q558.3125 58.803123 556.15625 58.25625Q553.2656 57.521873 552.1406 56.990623Q551.0156 56.459373 550.4375 55.521873Q549.8594 54.56875 549.8594 53.428123Q549.8594 52.38125 550.3281 51.50625Q550.8125 50.615623 551.6406 50.021873Q552.25 49.56875 553.3125 49.25625Q554.375 48.94375 555.59375 48.94375Q557.4219 48.94375 558.7969 49.475Q560.1875 49.990623 560.84375 50.896873Q561.5156 51.803123 561.75 53.303123L559.1719 53.6625Q559.0 52.459373 558.15625 51.7875Q557.3125 51.115623 555.78125 51.115623Q553.96875 51.115623 553.1875 51.709373Q552.40625 52.303123 552.40625 53.115623Q552.40625 53.63125 552.7344 54.0375Q553.0625 54.459373 553.75 54.740623Q554.1406 54.88125 556.0781 55.4125Q558.875 56.1625 559.96875 56.646873Q561.0781 57.115623 561.7031 58.021873Q562.34375 58.928123 562.34375 60.271873Q562.34375 61.6 561.5781 62.771873Q560.8125 63.928123 559.3594 64.56875Q557.90625 65.20937 556.0781 65.20937Q553.0469 65.20937 551.4531 63.94375Q549.8594 62.678123 549.4219 60.209373ZM564.4219 60.209373L567.03125 59.803123Q567.25 61.365623 568.25 62.209373Q569.25 63.0375 571.0625 63.0375Q572.875 63.0375 573.75 62.303123Q574.6406 61.553123 574.6406 60.553123Q574.6406 59.6625 573.8594 59.146873Q573.3125 58.803123 571.15625 58.25625Q568.2656 57.521873 567.1406 56.990623Q566.0156 56.459373 565.4375 55.521873Q564.8594 54.56875 564.8594 53.428123Q564.8594 52.38125 565.3281 51.50625Q565.8125 50.615623 566.6406 50.021873Q567.25 49.56875 568.3125 49.25625Q569.375 48.94375 570.59375 48.94375Q572.4219 48.94375 573.7969 49.475Q575.1875 49.990623 575.84375 50.896873Q576.5156 51.803123 576.75 53.303123L574.1719 53.6625Q574.0 52.459373 573.15625 51.7875Q572.3125 51.115623 570.78125 51.115623Q568.96875 51.115623 568.1875 51.709373Q567.40625 52.303123 567.40625 53.115623Q567.40625 53.63125 567.7344 54.0375Q568.0625 54.459373 568.75 54.740623Q569.1406 54.88125 571.0781 55.4125Q573.875 56.1625 574.96875 56.646873Q576.0781 57.115623 576.7031 58.021873Q577.34375 58.928123 577.34375 60.271873Q577.34375 61.6 576.5781 62.771873Q575.8125 63.928123 574.3594 64.56875Q572.90625 65.20937 571.0781 65.20937Q568.0469 65.20937 566.4531 63.94375Q564.8594 62.678123 564.4219 60.209373Z" fill-rule="nonzero"/><path fill="#a2c4c9" d="M594.5 49.35C594.5 48.797714 594.9477 48.35 595.5 48.35L605.5 48.35C606.0523 48.35 606.5 48.797714 606.5 49.35L606.5 59.35C606.5 59.902287 606.0523 60.35 605.5 60.35L595.5 60.35C594.9477 60.35 594.5 59.902287 594.5 59.35Z" fill-rule="nonzero"/><path fill="#1a1a1a" d="M616.875 64.85L616.875 43.38125L632.40625 43.38125L632.40625 45.9125L619.71875 45.9125L619.71875 52.490623L631.59375 52.490623L631.59375 55.00625L619.71875 55.00625L619.71875 62.31875L632.90625 62.31875L632.90625 64.85L616.875 64.85ZM636.4844 64.85L636.4844 49.2875L638.84375 49.2875L638.84375 51.50625Q640.5625 48.94375 643.7969 48.94375Q645.2031 48.94375 646.375 49.459373Q647.5625 49.959373 648.1406 50.7875Q648.7344 51.6 648.96875 52.725Q649.125 53.459373 649.125 55.2875L649.125 64.85L646.4844 64.85L646.4844 55.38125Q646.4844 53.771873 646.1719 52.975Q645.875 52.178123 645.0781 51.709373Q644.2969 51.225 643.25 51.225Q641.5625 51.225 640.3281 52.303123Q639.1094 53.365623 639.1094 56.35L639.1094 64.85L636.4844 64.85ZM653.46875 46.44375L653.46875 43.38125L656.09375 43.38125L656.09375 46.44375L653.46875 46.44375ZM650.125 70.88125L650.625 68.64687Q651.40625 68.85 651.8594 68.85Q652.6719 68.85 653.0625 68.31875Q653.46875 67.7875 653.46875 65.64687L653.46875 49.2875L656.09375 49.2875L656.09375 65.69375Q656.09375 68.56875 655.3594 69.69375Q654.40625 71.1625 652.1875 71.1625Q651.125 71.1625 650.125 70.88125ZM659.5 57.06875Q659.5 52.75625 661.90625 50.6625Q663.90625 48.94375 666.7969 48.94375Q670.0 48.94375 672.03125 51.053123Q674.0781 53.146873 674.0781 56.85Q674.0781 59.85 673.1719 61.584373Q672.2656 63.303123 670.5469 64.25625Q668.8281 65.20937 666.7969 65.20937Q663.53125 65.20937 661.5156 63.115623Q659.5 61.00625 659.5 57.06875ZM662.2031 57.06875Q662.2031 60.053123 663.5 61.553123Q664.8125 63.0375 666.7969 63.0375Q668.75 63.0375 670.0469 61.5375Q671.3594 60.0375 671.3594 56.990623Q671.3594 54.1 670.0469 52.615623Q668.7344 51.13125 666.7969 51.13125Q664.8125 51.13125 663.5 52.615623Q662.2031 54.084373 662.2031 57.06875ZM676.3594 70.83437L676.0625 68.36562Q676.9375 68.6 677.5781 68.6Q678.4531 68.6 678.9844 68.30312Q679.5156 68.02187 679.84375 67.49062Q680.09375 67.08437 680.65625 65.52187Q680.71875 65.30312 680.8906 64.88125L674.9844 49.2875L677.8281 49.2875L681.0625 58.303123Q681.6875 60.021873 682.1875 61.9125Q682.6406 60.084373 683.28125 58.365623L686.59375 49.2875L689.2344 49.2875L683.3125 65.11562Q682.3594 67.67812 681.84375 68.64687Q681.1406 69.94375 680.21875 70.55312Q679.3125 71.1625 678.0625 71.1625Q677.2969 71.1625 676.3594 70.83437ZM691.4844 64.85L691.4844 49.2875L693.84375 49.2875L693.84375 51.475Q694.5625 50.334373 695.78125 49.646873Q697.0 48.94375 698.5469 48.94375Q700.28125 48.94375 701.3906 49.6625Q702.5 50.38125 702.9531 51.6625Q704.7969 48.94375 707.75 48.94375Q710.0625 48.94375 711.3125 50.225Q712.5625 51.50625 712.5625 54.178123L712.5625 64.85L709.9375 64.85L709.9375 55.053123Q709.9375 53.475 709.6719 52.771873Q709.4219 52.06875 708.75 51.646873Q708.0781 51.225 707.1719 51.225Q705.53125 51.225 704.4375 52.31875Q703.3594 53.4125 703.3594 55.81875L703.3594 64.85L700.71875 64.85L700.71875 54.740623Q700.71875 52.990623 700.0781 52.115623Q699.4375 51.225 697.96875 51.225Q696.8594 51.225 695.90625 51.81875Q694.96875 52.396873 694.53125 53.521873Q694.1094 54.646873 694.1094 56.771873L694.1094 64.85L691.4844 64.85ZM727.125 59.834373L729.8594 60.178123Q729.2031 62.56875 727.4531 63.896873Q725.71875 65.20937 723.0156 65.20937Q719.59375 65.20937 717.59375 63.1Q715.59375 60.990623 715.59375 57.209373Q715.59375 53.271873 717.6094 51.115623Q719.6406 48.94375 722.8594 48.94375Q725.9844 48.94375 727.9531 51.06875Q729.9375 53.19375 729.9375 57.0375Q729.9375 57.271873 729.9219 57.740623L718.3281 57.740623Q718.46875 60.303123 719.7656 61.678123Q721.0781 63.0375 723.03125 63.0375Q724.46875 63.0375 725.5 62.271873Q726.53125 61.50625 727.125 59.834373ZM718.46875 55.584373L727.15625 55.584373Q726.9844 53.615623 726.15625 52.63125Q724.90625 51.115623 722.8906 51.115623Q721.0781 51.115623 719.84375 52.334373Q718.6094 53.5375 718.46875 55.584373ZM732.4844 64.85L732.4844 49.2875L734.84375 49.2875L734.84375 51.50625Q736.5625 48.94375 739.7969 48.94375Q741.2031 48.94375 742.375 49.459373Q743.5625 49.959373 744.1406 50.7875Q744.7344 51.6 744.96875 52.725Q745.125 53.459373 745.125 55.2875L745.125 64.85L742.4844 64.85L742.4844 55.38125Q742.4844 53.771873 742.1719 52.975Q741.875 52.178123 741.0781 51.709373Q740.2969 51.225 739.25 51.225Q737.5625 51.225 736.3281 52.303123Q735.1094 53.365623 735.1094 56.35L735.1094 64.85L732.4844 64.85ZM755.2344 62.490623L755.6094 64.81875Q754.5 65.05312 753.625 65.05312Q752.1875 65.05312 751.3906 64.6Q750.6094 64.14687 750.28125 63.4125Q749.96875 62.6625 749.96875 60.2875L749.96875 51.35L748.03125 51.35L748.03125 49.2875L749.96875 49.2875L749.96875 45.44375L752.5781 43.865623L752.5781 49.2875L755.2344 49.2875L755.2344 51.35L752.5781 51.35L752.5781 60.44375Q752.5781 61.56875 752.71875 61.896873Q752.8594 62.209373 753.1719 62.4125Q753.4844 62.6 754.0781 62.6Q754.5156 62.6 755.2344 62.490623Z" fill-rule="nonzero"/><path fill="#8e7cc3" d="M771.5 49.35C771.5 48.797714 771.9477 48.35 772.5 48.35L782.5 48.35C783.0523 48.35 783.5 48.797714 783.5 49.35L783.5 59.35C783.5 59.902287 783.0523 60.35 782.5 60.35L772.5 60.35C771.9477 60.35 771.5 59.902287 771.5 59.35Z" fill-rule="nonzero"/><path fill="#1a1a1a" d="M793.875 64.85L793.875 43.38125L809.40625 43.38125L809.40625 45.9125L796.71875 45.9125L796.71875 52.490623L808.59375 52.490623L808.59375 55.00625L796.71875 55.00625L796.71875 62.31875L809.90625 62.31875L809.90625 64.85L793.875 64.85ZM823.625 62.928123Q822.1719 64.17812 820.8125 64.69375Q819.4531 65.20937 817.90625 65.20937Q815.34375 65.20937 813.9531 63.959373Q812.5781 62.69375 812.5781 60.740623Q812.5781 59.6 813.09375 58.6625Q813.625 57.709373 814.46875 57.146873Q815.3125 56.56875 816.3594 56.2875Q817.1406 56.06875 818.7031 55.88125Q821.90625 55.50625 823.40625 54.975Q823.4219 54.428123 823.4219 54.2875Q823.4219 52.678123 822.6719 52.021873Q821.6719 51.13125 819.6719 51.13125Q817.8125 51.13125 816.9219 51.7875Q816.0469 52.428123 815.6094 54.084373L813.03125 53.725Q813.3906 52.06875 814.1875 51.053123Q815.0 50.0375 816.5156 49.490623Q818.0469 48.94375 820.0625 48.94375Q822.0469 48.94375 823.28125 49.4125Q824.53125 49.88125 825.1094 50.6Q825.7031 51.303123 825.9375 52.38125Q826.0781 53.053123 826.0781 54.81875L826.0781 58.334373Q826.0781 62.00625 826.2344 62.990623Q826.40625 63.959373 826.90625 64.85L824.15625 64.85Q823.75 64.02187 823.625 62.928123ZM823.40625 57.0375Q821.96875 57.63125 819.1094 58.0375Q817.4844 58.271873 816.7969 58.56875Q816.125 58.865623 815.75 59.428123Q815.3906 59.990623 815.3906 60.678123Q815.3906 61.725 816.1875 62.428123Q817.0 63.13125 818.53125 63.13125Q820.0625 63.13125 821.2344 62.475Q822.4219 61.803123 822.9844 60.646873Q823.40625 59.75625 823.40625 58.00625L823.40625 57.0375ZM828.4219 60.209373L831.03125 59.803123Q831.25 61.365623 832.25 62.209373Q833.25 63.0375 835.0625 63.0375Q836.875 63.0375 837.75 62.303123Q838.6406 61.553123 838.6406 60.553123Q838.6406 59.6625 837.8594 59.146873Q837.3125 58.803123 835.15625 58.25625Q832.2656 57.521873 831.1406 56.990623Q830.0156 56.459373 829.4375 55.521873Q828.8594 54.56875 828.8594 53.428123Q828.8594 52.38125 829.3281 51.50625Q829.8125 50.615623 830.6406 50.021873Q831.25 49.56875 832.3125 49.25625Q833.375 48.94375 834.59375 48.94375Q836.4219 48.94375 837.7969 49.475Q839.1875 49.990623 839.84375 50.896873Q840.5156 51.803123 840.75 53.303123L838.1719 53.6625Q838.0 52.459373 837.15625 51.7875Q836.3125 51.115623 834.78125 51.115623Q832.96875 51.115623 832.1875 51.709373Q831.40625 52.303123 831.40625 53.115623Q831.40625 53.63125 831.7344 54.0375Q832.0625 54.459373 832.75 54.740623Q833.1406 54.88125 835.0781 55.4125Q837.875 56.1625 838.96875 56.646873Q840.0781 57.115623 840.7031 58.021873Q841.34375 58.928123 841.34375 60.271873Q841.34375 61.6 840.5781 62.771873Q839.8125 63.928123 838.3594 64.56875Q836.90625 65.20937 835.0781 65.20937Q832.0469 65.20937 830.4531 63.94375Q828.8594 62.678123 828.4219 60.209373ZM855.125 59.834373L857.8594 60.178123Q857.2031 62.56875 855.4531 63.896873Q853.71875 65.20937 851.0156 65.20937Q847.59375 65.20937 845.59375 63.1Q843.59375 60.990623 843.59375 57.209373Q843.59375 53.271873 845.6094 51.115623Q847.6406 48.94375 850.8594 48.94375Q853.9844 48.94375 855.9531 51.06875Q857.9375 53.19375 857.9375 57.0375Q857.9375 57.271873 857.9219 57.740623L846.3281 57.740623Q846.46875 60.303123 847.7656 61.678123Q849.0781 63.0375 851.03125 63.0375Q852.46875 63.0375 853.5 62.271873Q854.53125 61.50625 855.125 59.834373ZM846.46875 55.584373L855.15625 55.584373Q854.9844 53.615623 854.15625 52.63125Q852.90625 51.115623 850.8906 51.115623Q849.0781 51.115623 847.84375 52.334373Q846.6094 53.5375 846.46875 55.584373ZM867.5 57.06875Q867.5 52.75625 869.90625 50.6625Q871.90625 48.94375 874.7969 48.94375Q878.0 48.94375 880.03125 51.053123Q882.0781 53.146873 882.0781 56.85Q882.0781 59.85 881.1719 61.584373Q880.2656 63.303123 878.5469 64.25625Q876.8281 65.20937 874.7969 65.20937Q871.53125 65.20937 869.5156 63.115623Q867.5 61.00625 867.5 57.06875ZM870.2031 57.06875Q870.2031 60.053123 871.5 61.553123Q872.8125 63.0375 874.7969 63.0375Q876.75 63.0375 878.0469 61.5375Q879.3594 60.0375 879.3594 56.990623Q879.3594 54.1 878.0469 52.615623Q876.7344 51.13125 874.7969 51.13125Q872.8125 51.13125 871.5 52.615623Q870.2031 54.084373 870.2031 57.06875ZM885.1094 64.85L885.1094 51.35L882.78125 51.35L882.78125 49.2875L885.1094 49.2875L885.1094 47.63125Q885.1094 46.06875 885.3906 45.303123Q885.7656 44.2875 886.71875 43.646873Q887.6875 43.00625 889.4219 43.00625Q890.53125 43.00625 891.875 43.271873L891.4844 45.56875Q890.65625 45.428123 889.9219 45.428123Q888.71875 45.428123 888.21875 45.94375Q887.7344 46.44375 887.7344 47.85L887.7344 49.2875L890.7656 49.2875L890.7656 51.35L887.7344 51.35L887.7344 64.85L885.1094 64.85ZM914.90625 43.38125L917.75 43.38125L917.75 55.7875Q917.75 59.021873 917.0156 60.928123Q916.28125 62.834373 914.3594 64.02187Q912.4531 65.20937 909.3594 65.20937Q906.34375 65.20937 904.4219 64.17812Q902.5 63.13125 901.6719 61.1625Q900.8594 59.19375 900.8594 55.7875L900.8594 43.38125L903.7031 43.38125L903.7031 55.771873Q903.7031 58.56875 904.21875 59.896873Q904.7344 61.209373 906.0 61.928123Q907.28125 62.646873 909.1094 62.646873Q912.2344 62.646873 913.5625 61.225Q914.90625 59.803123 914.90625 55.771873L914.90625 43.38125ZM921.4219 60.209373L924.03125 59.803123Q924.25 61.365623 925.25 62.209373Q926.25 63.0375 928.0625 63.0375Q929.875 63.0375 930.75 62.303123Q931.6406 61.553123 931.6406 60.553123Q931.6406 59.6625 930.8594 59.146873Q930.3125 58.803123 928.15625 58.25625Q925.2656 57.521873 924.1406 56.990623Q923.0156 56.459373 922.4375 55.521873Q921.8594 54.56875 921.8594 53.428123Q921.8594 52.38125 922.3281 51.50625Q922.8125 50.615623 923.6406 50.021873Q924.25 49.56875 925.3125 49.25625Q926.375 48.94375 927.59375 48.94375Q929.4219 48.94375 930.7969 49.475Q932.1875 49.990623 932.84375 50.896873Q933.5156 51.803123 933.75 53.303123L931.1719 53.6625Q931.0 52.459373 930.15625 51.7875Q929.3125 51.115623 927.78125 51.115623Q925.96875 51.115623 925.1875 51.709373Q924.40625 52.303123 924.40625 53.115623Q924.40625 53.63125 924.7344 54.0375Q925.0625 54.459373 925.75 54.740623Q926.1406 54.88125 928.0781 55.4125Q930.875 56.1625 931.96875 56.646873Q933.0781 57.115623 933.7031 58.021873Q934.34375 58.928123 934.34375 60.271873Q934.34375 61.6 933.5781 62.771873Q932.8125 63.928123 931.3594 64.56875Q929.90625 65.20937 928.0781 65.20937Q925.0469 65.20937 923.4531 63.94375Q921.8594 62.678123 921.4219 60.209373ZM948.125 59.834373L950.8594 60.178123Q950.2031 62.56875 948.4531 63.896873Q946.71875 65.20937 944.0156 65.20937Q940.59375 65.20937 938.59375 63.1Q936.59375 60.990623 936.59375 57.209373Q936.59375 53.271873 938.6094 51.115623Q940.6406 48.94375 943.8594 48.94375Q946.9844 48.94375 948.9531 51.06875Q950.9375 53.19375 950.9375 57.0375Q950.9375 57.271873 950.9219 57.740623L939.3281 57.740623Q939.46875 60.303123 940.7656 61.678123Q942.0781 63.0375 944.03125 63.0375Q945.46875 63.0375 946.5 62.271873Q947.53125 61.50625 948.125 59.834373ZM939.46875 55.584373L948.15625 55.584373Q947.9844 53.615623 947.15625 52.63125Q945.90625 51.115623 943.8906 51.115623Q942.0781 51.115623 940.84375 52.334373Q939.6094 53.5375 939.46875 55.584373Z" fill-rule="nonzero"/></svg>